<?xml version="1.0" encoding="UTF-8"?>
<svg width="1440px" height="417px" viewBox="0 0 1440 417" version="1.1" xmlns="http://www.w3.org/2000/svg" xmlns:xlink="http://www.w3.org/1999/xlink">
    <!-- Generator: Sketch 50.2 (55047) - http://www.bohemiancoding.com/sketch -->
    <title>Casino</title>
    <desc>Created with Sketch.</desc>
    <defs>
        <rect id="path-1" x="0" y="0" width="1440" height="417"></rect>
        <rect id="path-3" x="0" y="0" width="1440" height="594"></rect>
        <filter x="-8.7%" y="-20.5%" width="117.5%" height="141.1%" filterUnits="objectBoundingBox" id="filter-5">
            <feGaussianBlur stdDeviation="50" in="SourceGraphic"></feGaussianBlur>
        </filter>
        <filter x="-9.6%" y="-41.2%" width="119.1%" height="182.5%" filterUnits="objectBoundingBox" id="filter-6">
            <feGaussianBlur stdDeviation="50" in="SourceGraphic"></feGaussianBlur>
        </filter>
    </defs>
    <g id="Product" stroke="none" stroke-width="1" fill="none" fill-rule="evenodd">
        <g id="Casino">
            <mask id="mask-2" fill="white">
                <use xlink:href="#path-1"></use>
            </mask>
            <use id="Mask" fill="#2D043A" xlink:href="#path-1"></use>
            <g id="Pattern" mask="url(#mask-2)">
                <mask id="mask-4" fill="white">
                    <use xlink:href="#path-3"></use>
                </mask>
                <use id="Mask" fill="#431053" xlink:href="#path-3"></use>
                <g  mask="url(#mask-4)" id="pattern">
                    <g transform="translate(-2880.000000, -734.000000)">
                        <g transform="translate(282.657733, 0.000000)">
                            <g id="Group" fill="#5E3D7A">
                                <g id="Pattern-poker-Copy" transform="translate(1674.785150, 92.550452)">
                                    <g id="Group-46">
                                        <g id="Group-7" transform="translate(1292.180546, 663.397986)">
                                            <g id="Group-6" transform="translate(0.000000, 0.000000)">
                                                <path d="M418.69113,336.258404 C371.286122,321.337752 325.940071,302.49705 290.191816,266.977889 C287.498028,264.300734 289.274421,259.544197 292.98921,259.522495 L347.015662,259.189084 C486.789324,258.321031 464.555217,73.4099036 357.657064,66.9034499 C274.63378,61.8411211 193.970857,58.7062651 111.094507,55.4569839 C105.507253,55.2379978 100.611341,59.3770335 99.6355494,65.1416963 C84.9515819,151.775385 70.0095383,233.55192 57.2168734,321.937498 C41.1615232,432.835247 209.319794,493.853473 239.045645,350.841698 L250.4933,295.619701 C251.295785,291.752918 256.223721,290.975616 258.101837,294.408372 C281.377668,336.939036 290.120233,389.160331 295.635904,440.955491 C296.430854,448.426668 304.77406,452.03698 310.350011,447.304117 L421.782393,352.713932 C427.431811,347.915964 425.657302,338.450238 418.69113,336.258404" id="Fill-4" transform="translate(250.514135, 252.441285) rotate(20.000000) translate(-250.514135, -252.441285) "></path>
                                            </g>
                                        </g>
                                        <path d="M1030.60993,761.270135 L959.717998,651.337337 C956.697002,646.65497 956.566082,640.555209 959.382514,635.734017 L986.309632,589.625039 C989.083514,584.874115 994.220516,582.219289 999.509713,582.805441 L1108.8236,594.891845 C1113.86568,595.448862 1118.20734,598.862945 1120.1286,603.776688 L1140.25603,655.294726 C1142.43422,660.86832 1141.07919,667.269726 1136.857,671.357371 L1042.47789,762.709809 C1038.93485,766.139317 1033.30853,765.455472 1030.60993,761.270135" id="Fill-13"></path>
                                        <g id="Group-19" transform="translate(919.718022, 898.082162)">
                                            <path d="M296.290044,195.765811 L66.1232448,261.64288 C59.660671,263.492175 52.7775145,258.964058 50.5420433,251.39206 L0.340495155,81.2911853 C-1.23546295,75.9506814 2.91636022,71.1312023 7.50513127,72.971928 L48.0414576,89.2248157 C52.9837146,91.2060809 58.271275,91.0175522 62.8715016,88.6952214 L93.7491522,73.1073259 C98.3493788,70.7849951 101.931697,66.4951103 103.798954,61.0757671 L120.275326,13.2648893 C121.649993,9.27836431 125.937646,8.03921659 129.065015,10.7248936 L166.914194,43.2083883 C171.164207,46.8538477 176.332303,48.6140202 181.412026,48.1392707 L215.528328,44.9634191 C220.608052,44.4903834 225.239372,41.8201315 228.5173,37.473688 L255.13839,2.1622629 C258.19048,-1.88596241 264.119551,0.0473136921 265.358389,5.49236527 L304.727884,178.642263 C306.482222,186.351373 302.752618,193.916516 296.290044,195.765811" id="Fill-17"></path>
                                        </g>
                                    </g>
                                </g>
                            </g>
                            <g id="Group" transform="translate(3446.487818, 0.000000)" fill="#5E3D7A">
                                <g id="Pattern-poker-Copy">
                                    <g id="Group-46">
                                        <g id="Group-19" transform="translate(0.000000, 540.872610)">
                                            <path d="M296.612897,196.418395 L66.4460974,262.295464 C59.9835236,264.144759 53.100367,259.616643 50.8648958,252.044644 L0.663347682,81.9437697 C-0.912610423,76.6032659 3.23921275,71.7837868 7.8279838,73.6245124 L48.3643101,89.8774001 C53.3065671,91.8586653 58.5941275,91.6701366 63.1943541,89.3478058 L94.0720047,73.7599103 C98.6722313,71.4375795 102.254549,67.1476947 104.121806,61.7283516 L120.598178,13.9174738 C121.972846,9.93094874 126.260499,8.69180102 129.387868,11.377478 L167.237046,43.8609727 C171.48706,47.5064322 176.655155,49.2666046 181.734879,48.7918551 L215.851181,45.6160035 C220.930904,45.1429678 225.562225,42.4727159 228.840152,38.1262725 L255.461243,2.81484733 C258.513332,-1.23337798 264.442404,0.699898121 265.681241,6.1449497 L305.050737,179.294848 C306.805074,187.003958 303.07547,194.5691 296.612897,196.418395" id="Fill-17"></path>
                                        </g>
                                        <g id="Group-24" transform="translate(468.678064, 807.245607)">
                                            <path d="M153.767034,388.842668 L0.989106001,266.749769 C66.6998493,249.117194 115.590554,240.208356 157.02696,183.339531 L135.994547,172.994447 C113.129244,187.8248 86.3199549,189.891761 60.3600137,169.145034 C34.3869804,148.389739 25.43364,101.901989 47.77526,71.2369397 C70.1283355,40.5598927 115.304165,37.3326242 141.277198,58.0896338 C167.237139,78.8346462 172.41178,106.459242 164.780739,133.485688 L179.861169,151.999206 L206.619727,106.824302 C192.441013,82.9000105 192.999063,51.3111702 210.278961,27.59426 C232.622217,-3.07078971 274.464478,-8.95974068 303.764534,14.4572375 C333.044952,37.8570767 338.684361,81.6882851 316.339468,112.353335 C299.05957,136.070245 270.103181,144.961944 244.355986,136.982038 L209.773279,175.902931 L234.921512,189.538698 C257.765541,174.670639 284.583012,172.612248 310.556046,193.367544 C336.51926,214.117698 345.462781,260.595164 323.111342,291.270497 C300.769722,321.935547 255.602076,325.174813 229.637225,304.424658 C203.665828,283.669363 198.483004,256.034483 206.13532,229.047457 L186.93907,207.241542 C145.892153,263.577345 153.981417,319.613216 153.767034,388.842668" id="Fill-22"></path>
                                        </g>
                                        <g id="Group-36" transform="translate(179.015983, 955.635746)">
                                            <polygon id="Fill-34" points="163.742865 107.05305 96.729461 235.670756 0.533829215 129.282297 67.5472336 0.66287794"></polygon>
                                        </g>
                                    </g>
                                </g>
                            </g>
                        </g>
                    </g>
                </g>
            </g>
            <!-- <ellipse id="Oval-3" fill="#E4E4FF" opacity="0.0799999982" filter="url(#filter-5)" mask="url(#mask-2)" cx="720.5" cy="-62.9155138" rx="857.5" ry="365.084486"></ellipse> 
            <ellipse id="Oval-3" fill="#0600FF" opacity="0.049999997" filter="url(#filter-6)" mask="url(#mask-2)" cx="720.5" cy="-0.548913043" rx="784.5" ry="181.822628"></ellipse> -->
        </g>
    </g>
</svg>