<?xml version="1.0" encoding="UTF-8"?>
<svg  viewBox="0 0 102 103" version="1.1" xmlns="http://www.w3.org/2000/svg" xmlns:xlink="http://www.w3.org/1999/xlink">
    <!-- Generator: Sketch 50.2 (55047) - http://www.bohemiancoding.com/sketch -->
    <title>Products/desktop/casino/control1</title>
    <desc>Created with Sketch.</desc>
    <defs></defs>
    <g id="Products/desktop/casino/control1" stroke="none" stroke-width="1" fill="none" fill-rule="evenodd">
        <g id="Control" fill="#CE3271">
            <path d="M98.2530613,29.4819416 C100.440118,30.2867294 102,32.3880396 102,34.8535354 C102,37.3190311 100.440118,39.4203413 98.2530613,40.2251291 L98.2530613,101.230612 C98.2530613,102.207818 97.4608794,103 96.4836735,103 C95.5064676,103 94.7142857,102.207818 94.7142857,101.230612 L94.7142857,40.3603601 C92.3115562,39.6810503 90.5510204,37.472809 90.5510204,34.8535354 C90.5510204,32.2342617 92.3115562,30.0260204 94.7142857,29.3467106 L94.7142857,1.7693878 C94.7142857,0.792181904 95.5064676,1.79509812e-16 96.4836735,0 C97.4608794,-1.79509812e-16 98.2530613,0.792181904 98.2530613,1.7693878 L98.2530613,29.4819416 Z M68.0693879,53.4112345 C70.2564449,54.2160224 71.8163265,56.3173325 71.8163265,58.7828283 C71.8163265,61.248324 70.2564449,63.3496342 68.0693879,64.1544221 L68.0693879,101.230612 C68.0693879,102.207818 67.277206,103 66.3,103 C65.3227941,103 64.5306122,102.207818 64.5306122,101.230612 L64.5306122,64.2896531 C62.1278828,63.6103432 60.3673469,61.4021019 60.3673469,58.7828283 C60.3673469,56.1635547 62.1278828,53.9553134 64.5306122,53.2760035 L64.5306122,1.7693878 C64.5306122,0.792181904 65.3227941,1.79509812e-16 66.3,0 C67.277206,-1.79509812e-16 68.0693879,0.792181904 68.0693879,1.7693878 L68.0693879,53.4112345 Z M37.8857144,15.956689 C40.0727714,16.7614769 41.6326531,18.8627871 41.6326531,21.3282828 C41.6326531,23.7937786 40.0727714,25.8950887 37.8857144,26.6998766 L37.8857144,101.230612 C37.8857144,102.207818 37.0935325,103 36.1163266,103 C35.1391207,103 34.3469388,102.207818 34.3469388,101.230612 L34.3469388,26.8351076 C31.9442093,26.1557978 30.1836735,23.9475564 30.1836735,21.3282828 C30.1836735,18.7090092 31.9442093,16.5007679 34.3469388,15.821458 L34.3469388,1.7693878 C34.3469388,0.792181904 35.1391207,1.79509812e-16 36.1163266,0 C37.0935325,-1.79509812e-16 37.8857144,0.792181904 37.8857144,1.7693878 L37.8857144,15.956689 Z M7.70204092,72.1385072 C9.88909797,72.9432951 11.4489796,75.0446053 11.4489796,77.510101 C11.4489796,79.9755967 9.88909797,82.0769069 7.70204092,82.8816948 L7.70204092,101.230612 C7.70204092,102.207818 6.90985901,103 5.93265311,103 C4.95544721,103 4.16326531,102.207818 4.16326531,101.230612 L4.16326531,83.0169258 C1.76053583,82.3376159 0,80.1293746 0,77.510101 C0,74.8908274 1.76053583,72.6825861 4.16326531,72.0032762 L4.16326531,1.7693878 C4.16326531,0.792181904 4.95544721,1.79509812e-16 5.93265311,0 C6.90985901,-1.79509812e-16 7.70204092,0.792181904 7.70204092,1.7693878 L7.70204092,72.1385072 Z" id="Combined-Shape"></path>
        </g>
    </g>
</svg>