<svg xmlns="http://www.w3.org/2000/svg" viewBox="0 0 58 58">
    <g fill="#CE3271" fill-rule="nonzero">
        <path d="M29 18.125c-5.992 0-10.875 4.883-10.875 10.875S23.008 39.875 29 39.875 39.875 34.992 39.875 29 34.992 18.125 29 18.125zm0 19.349c-4.66 0-8.454-3.793-8.454-8.454 0-4.66 3.793-8.454 8.454-8.454 4.66 0 8.454 3.793 8.454 8.454 0 4.66-3.793 8.454-8.454 8.454z"/>
        <path d="M54.434 23.45h-2.68a23.165 23.165 0 0 0-2.74-6.608l1.895-1.894a3.587 3.587 0 0 0 0-5.056l-2.8-2.8a3.57 3.57 0 0 0-2.519-1.048c-.947 0-1.853.362-2.518 1.047l-1.894 1.894a23.165 23.165 0 0 0-6.608-2.74v-2.68A3.56 3.56 0 0 0 31.005 0h-3.97a3.56 3.56 0 0 0-3.565 3.566v2.68a23.165 23.165 0 0 0-6.608 2.74L14.968 7.09a3.57 3.57 0 0 0-2.518-1.047c-.947 0-1.853.362-2.518 1.047l-2.84 2.8c-1.39 1.39-1.39 3.647 0 5.057l1.893 1.894a23.165 23.165 0 0 0-2.74 6.608h-2.68A3.56 3.56 0 0 0 0 27.016v3.968a3.56 3.56 0 0 0 3.566 3.566h2.68a23.165 23.165 0 0 0 2.74 6.608L7.09 43.052a3.587 3.587 0 0 0 0 5.056l2.8 2.8a3.57 3.57 0 0 0 2.519 1.048c.947 0 1.853-.362 2.518-1.047l1.894-1.894a23.165 23.165 0 0 0 6.608 2.74v2.68A3.56 3.56 0 0 0 26.995 58h3.97a3.56 3.56 0 0 0 3.565-3.566v-2.68a23.165 23.165 0 0 0 6.608-2.74l1.894 1.895a3.57 3.57 0 0 0 2.518 1.047c.947 0 1.853-.362 2.518-1.047l2.8-2.8c1.39-1.39 1.39-3.647 0-5.057l-1.893-1.894a23.165 23.165 0 0 0 2.74-6.608h2.72A3.56 3.56 0 0 0 58 30.984v-3.968a3.56 3.56 0 0 0-3.566-3.566zm1.148 7.534c0 .645-.523 1.149-1.148 1.149h-3.646c-.584 0-1.068.403-1.189.967a21.242 21.242 0 0 1-3.122 7.554 1.217 1.217 0 0 0 .14 1.531l2.58 2.58a1.168 1.168 0 0 1 0 1.631l-2.801 2.8a1.13 1.13 0 0 1-.806.343c-.302 0-.604-.121-.806-.343l-2.599-2.578a1.217 1.217 0 0 0-1.53-.141c-2.297 1.53-4.836 2.598-7.555 3.122-.564.121-.967.605-.967 1.189v3.646c0 .645-.524 1.148-1.149 1.148h-3.968a1.148 1.148 0 0 1-1.149-1.148v-3.646c0-.584-.403-1.068-.967-1.189a21.242 21.242 0 0 1-7.554-3.122 1.168 1.168 0 0 0-.665-.202c-.302 0-.625.121-.846.363l-2.579 2.578a1.13 1.13 0 0 1-.806.343c-.302 0-.604-.121-.806-.343l-2.8-2.8a1.168 1.168 0 0 1 0-1.632l2.579-2.578a1.217 1.217 0 0 0 .14-1.531c-1.53-2.297-2.598-4.835-3.122-7.555a1.209 1.209 0 0 0-1.188-.967H3.606a1.148 1.148 0 0 1-1.148-1.148v-3.97c0-.644.524-1.148 1.148-1.148h3.647c.584 0 1.067-.402 1.188-.967a21.242 21.242 0 0 1 3.123-7.554 1.217 1.217 0 0 0-.141-1.531l-2.579-2.579a1.168 1.168 0 0 1 0-1.632l2.8-2.8a1.13 1.13 0 0 1 .806-.343c.302 0 .605.121.806.343l2.579 2.579a1.217 1.217 0 0 0 1.53.14c2.297-1.53 4.836-2.598 7.555-3.122.565-.12.967-.604.967-1.189V3.566c0-.645.524-1.148 1.149-1.148h3.969c.644 0 1.148.523 1.148 1.148v3.646c0 .584.403 1.068.967 1.189 2.7.544 5.238 1.591 7.555 3.122a1.217 1.217 0 0 0 1.53-.14l2.56-2.58a1.13 1.13 0 0 1 .805-.342c.302 0 .604.121.806.343l2.8 2.8a1.168 1.168 0 0 1 0 1.632l-2.579 2.579a1.217 1.217 0 0 0-.14 1.53c1.53 2.297 2.598 4.836 3.122 7.555.12.564.604.967 1.189.967h3.666c.645 0 1.148.524 1.148 1.149v3.968z"/>
    </g>
</svg>
