<svg xmlns="http://www.w3.org/2000/svg"  viewBox="0 0 58 55">
    <path fill="#f9b000" fill-rule="nonzero" d="M49.714 20.807C49.714 9.287 40.444 0 29 0 17.555 0 8.286 9.288 8.286 20.755v.052C3.676 21.066 0 24.906 0 29.575v1.038c0 4.878 3.936 8.821 8.804 8.821h.466l3.676 5.863c2.59 4.151 6.992 6.59 11.86 6.59h.724C25.996 53.65 27.602 55 29.518 55c2.278 0 4.143-1.868 4.143-4.15 0-2.284-1.865-4.152-4.143-4.152-1.916 0-3.522 1.35-3.988 3.113h-.725c-4.142 0-7.923-2.127-10.098-5.655l-3.003-4.722h.725a2.08 2.08 0 0 0 2.071-2.076V22.83a2.08 2.08 0 0 0-2.071-2.075h-2.072c0-10.326 8.338-18.68 18.643-18.68 10.305 0 18.643 8.354 18.643 18.68H45.57A2.08 2.08 0 0 0 43.5 22.83v14.528a2.08 2.08 0 0 0 2.071 2.076h3.625c4.868 0 8.804-3.943 8.804-8.82v-1.039c0-4.67-3.677-8.509-8.286-8.768zM29.518 48.774a2.08 2.08 0 0 1 2.071 2.075 2.08 2.08 0 0 1-2.071 2.076 2.08 2.08 0 0 1-2.072-2.076 2.08 2.08 0 0 1 2.072-2.075zM12.428 22.83v14.528H8.805a6.725 6.725 0 0 1-6.733-6.745v-1.038a6.725 6.725 0 0 1 6.733-6.745h3.625zm43.5 7.783a6.725 6.725 0 0 1-6.732 6.745h-3.625V22.83h3.625a6.725 6.725 0 0 1 6.733 6.745v1.038z"/>
</svg>
