<?xml version="1.0" encoding="UTF-8"?>
<svg  viewBox="0 0 102 96" version="1.1" xmlns="http://www.w3.org/2000/svg" xmlns:xlink="http://www.w3.org/1999/xlink">
    <!-- Generator: Sketch 50.2 (55047) - http://www.bohemiancoding.com/sketch -->
    <title>Products/desktop/casino/monitor</title>
    <desc>Created with Sketch.</desc>
    <defs></defs>
    <g id="Products/desktop/casino/monitor" stroke="none" stroke-width="1" fill="none" fill-rule="evenodd">
        <g id="monitor" fill="#CE3271" fill-rule="nonzero">
            <path d="M93.7900085,0 L8.11799655,0.44729176 C3.6419322,0.44729176 0,4.03572387 0,8.44734756 L0,28.0745115 C0,28.9780001 0.74328806,29.7102931 1.65989711,29.7102931 C2.57670538,29.7102931 3.31979422,28.9778038 3.31979422,28.0745115 L3.31979422,8.44734756 C3.31979422,5.8399525 5.47236122,3.71885498 8.11799655,3.71885498 L93.8800113,3.71885498 C96.5270411,3.71885498 98.680405,5.84014883 98.680405,8.44734756 L98.680405,64.2845919 L92.2133407,64.2845919 L92.2133407,44.0611325 C92.2133407,40.8865539 89.5926078,38.3040922 86.3714272,38.3040922 L62.2015164,38.3040922 C58.9801366,38.3040922 56.359603,40.8867502 56.359603,44.0611325 L56.359603,75.2839079 L8.11799655,75.2839079 C5.47236122,75.2839079 3.31979422,73.162614 3.31979422,70.5554153 L3.31979422,67.5565478 L56.4863769,67.5565478 C57.4031852,67.5565478 58.146274,66.8240584 58.146274,65.9207662 C58.146274,65.0172776 57.4029859,64.2849845 56.4863769,64.2849845 L3.31979422,64.2849845 L3.31979422,25.5272478 C3.31979422,24.6237592 2.57650616,23.8914662 1.65989711,23.8914662 C0.74328806,23.8914662 0,24.6239555 0,25.5272478 L0,70.555219 C0,74.9666463 3.6419322,78.5552748 8.11799655,78.5552748 L36.5639553,78.5552748 L32.4809511,87.9686757 L24.506791,87.9686757 C23.5899828,87.9686757 22.8468939,88.701165 22.8468939,89.6044573 C22.8468939,90.5079459 23.590182,91.2402389 24.506791,91.2402389 L33.5764593,91.2402389 L57.0751878,91.2402389 C58.213329,91.2402389 58.9564178,90.5077496 58.9564178,89.6044573 C58.9564178,88.7009687 58.2131297,87.9686757 57.2965207,87.9686757 L36.0912074,87.9686757 L40.0899963,78.5648513 L56.3599854,78.5273699 L56.3594037,89.6902514 C56.3594037,92.86483 58.9801366,95.4472918 62.2013172,95.4472918 L86.371228,95.4472918 C89.5926078,95.4472918 92.2131415,92.8646337 92.2131415,89.6902514 L92.2131415,67.5561551 L98.6802058,67.5561551 L98.6802058,70.5550226 C98.6802058,72.4595735 97.5291153,74.1699586 95.7476943,74.9126569 C92.8440729,76.0848901 90.1875534,74.9200007 90.3854341,75.3815943 C90.5833147,75.8431879 91.6098901,76.732579 91.7863974,77.1437169 C92.0541485,77.7680311 88.0284846,78.5249958 91.9258696,78.5413765 C95.8232547,78.5577571 96.9320192,78.1189509 97.1429926,78.0309972 C100.058347,76.7801816 102,73.7771119 102,70.555219 L102,8.44734756 C102.000398,4.03572387 98.2674674,0 93.7900085,0 Z M59.6789987,44.0611325 C59.679198,42.6905862 60.8105657,41.5756554 62.2013172,41.5756554 L86.371228,41.5756554 C87.7619795,41.5756554 88.8933472,42.6905862 88.8933472,44.0611325 L88.8933472,82.1433142 L59.6789987,82.1433142 L59.6789987,44.0611325 Z M88.8937457,89.6906441 C88.8937457,91.060994 87.762378,92.1761212 86.3714272,92.1761212 L62.2015164,92.1761212 C60.8107649,92.1761212 59.6793972,91.0611903 59.6793972,89.6906441 L59.6793972,85.4148774 L88.8937457,85.4148774 L88.8937457,89.6906441 Z" id="Shape"></path>
            <path d="M52.3669946,70.154654 C51.6331069,69.0577008 49.843945,69.4069704 49.5879034,70.6986876 C49.4642082,71.3225129 49.7596408,71.9758974 50.3171893,72.2965145 C50.8740016,72.6165877 51.5981336,72.5547492 52.0881283,72.1414649 C52.6734714,71.6478451 52.7896197,70.7868211 52.3669946,70.154654 Z" id="Shape"></path>
            <path d="M75.968719,87.9268683 C75.7248885,87.3610845 75.1438573,86.9846165 74.5136549,87.0004829 C73.885294,87.0161691 73.3197325,87.4167974 73.1079461,87.9955629 C72.8919241,88.5864085 73.0832684,89.2637984 73.5781118,89.6626237 C74.0935813,90.0780367 74.8466198,90.1122938 75.4020525,89.7516923 C76.0083138,89.3579154 76.2374114,88.5837039 75.968719,87.9268683 Z" id="Shape"></path>
            <path d="M77.9207336,43 L68.9592664,43 C68.0538531,43 67.32,43.6716875 67.32,44.5 C67.32,45.3284926 68.0540498,46 68.9592664,46 L77.9207336,46 C78.8261469,46 79.56,45.3283125 79.56,44.5 C79.56,43.6715074 78.8261469,43 77.9207336,43 Z" id="Shape"></path>
        </g>
    </g>
</svg>