<svg xmlns="http://www.w3.org/2000/svg" width="1416" height="547" viewBox="0 0 1416 547">
    <g fill="#5E3D7A" fill-rule="evenodd" opacity=".15">
        <path d="M1395.505 410.672c-39.443-30.234-75.61-63.448-97.054-109.052-1.616-3.437 1.68-7.299 5.178-6.049l50.882 18.165c131.642 46.99 173.992-134.374 75.766-177.05-76.285-33.152-151.011-63.687-227.778-95.085-5.176-2.117-11.192.098-14.08 5.181-43.43 76.387-85.44 148.121-127.69 226.801-53.017 98.719 84.13 213.57 160.977 89.35l29.644-47.976c2.077-3.36 6.973-2.404 7.564 1.464 7.326 47.927-2.32 99.989-14.851 150.547-1.809 7.292 4.796 13.538 11.655 10.998l137.064-50.774c6.95-2.576 8.52-12.078 2.723-16.52M245.35 529.654c9.2-32.852 20.877-64.296 43.117-89.175 1.678-1.877 4.682-.669 4.714 1.9l.448 37.363c1.167 96.664 117.663 80.47 121.295 6.51 2.824-57.442 4.445-113.241 6.127-170.574.114-3.865-2.519-7.231-6.157-7.882-54.693-9.771-106.324-19.746-162.11-28.2-69.999-10.617-107.734 105.954-17.423 125.878l34.87 7.675c2.442.538 2.955 3.942.798 5.256-26.715 16.287-59.605 22.564-92.24 26.605-4.707.585-6.947 6.37-3.938 10.205l60.137 76.649c3.049 3.888 9.01 2.617 10.362-2.21M754.053 119.82L683.16 9.889c-3.021-4.683-3.152-10.782-.336-15.604l26.928-46.109c2.773-4.75 7.91-7.405 13.2-6.82l109.313 12.087c5.043.557 9.384 3.971 11.305 8.885L863.7 13.845c2.178 5.574.823 11.975-3.4 16.063l-94.378 91.352c-3.543 3.43-9.17 2.746-11.868-1.44M939.45 452.398l-230.166 65.877c-6.462 1.85-13.346-2.678-15.581-10.25L643.5 337.924c-1.576-5.34 2.576-10.16 7.165-8.32l40.536 16.253c4.943 1.982 10.23 1.793 14.83-.53l30.878-15.587c4.6-2.322 8.183-6.612 10.05-12.032l16.476-47.81c1.375-3.987 5.663-5.226 8.79-2.54l37.85 32.483c4.25 3.645 9.417 5.406 14.497 4.93l34.116-3.175c5.08-.473 9.711-3.143 12.99-7.49l26.62-35.311c3.052-4.048 8.981-2.115 10.22 3.33l39.37 173.15c1.754 7.709-1.975 15.274-8.438 17.123M15.26-60.437C-6.345-41.86-9.515-8.15 8.225 14.479c30.298 38.696 60.42 75.502 91.47 113.5 40.755-27.396 79.442-52.5 120.04-81.253 23.152-16.394 29.28-49.65 13.626-73.912h-.005c-15.648-24.22-47.403-30.657-70.56-14.263l-43.053 30.485L86.79-53.037c-17.73-22.628-49.918-25.94-71.528-7.4M539.268-120.564L482.55 59.09 335.493-55.311l56.715-179.656z"/>
    </g>
</svg>
