<?xml version="1.0" encoding="UTF-8"?>
<svg  viewBox="0 0 102 102" version="1.1" xmlns="http://www.w3.org/2000/svg" xmlns:xlink="http://www.w3.org/1999/xlink">
    <!-- Generator: Sketch 50.2 (55047) - http://www.bohemiancoding.com/sketch -->
    <title>Products/desktop/casino/server</title>
    <desc>Created with Sketch.</desc>
    <defs></defs>
    <g id="Products/desktop/casino/server" stroke="none" stroke-width="1" fill="none" fill-rule="evenodd">
        <g id="server" fill="#CE3271" fill-rule="nonzero">
            <path d="M44.4289305,14 L12.5710711,14 C11.7031031,14 11,14.6712621 11,15.5000754 C11,16.3287364 11.7031031,17 12.5710711,17 L44.4289305,17 C45.2968993,17 46,16.3287366 46,15.5000754 C46,14.6712621 45.2968993,14 44.4289305,14 Z" id="Shape"></path>
            <circle id="Oval" cx="84.5" cy="15.5" r="4.5"></circle>
            <path d="M95.624999,0 L6.37499874,0 C2.85408751,0 0,2.86528 0,6.4 L0,25.6 C0,29.1345611 2.85408751,32 6.3749997,32 L95.625,32 C99.1457512,32 102,29.1345611 102,25.6 L102,6.4 C101.999999,2.86528 99.1457502,0 95.624999,0 Z M98.812499,25.6 C98.812499,27.3643189 97.3825841,28.8 95.624999,28.8 L6.37499874,28.8 C4.61741172,28.8 3.18749905,27.3643189 3.18749905,25.6 L3.18749905,6.4 C3.18749905,4.63536 4.61741172,3.2 6.37499874,3.2 L95.624999,3.2 C97.3825841,3.2 98.812499,4.63536 98.812499,6.4 L98.812499,25.6 Z" id="Shape"></path>
            <path d="M44.4289305,49 L12.5710711,49 C11.7031031,49 11,49.6712628 11,50.5000754 C11,51.3287343 11.7031031,52 12.5710711,52 L44.4289305,52 C45.2968993,52 46,51.3287343 46,50.5000754 C46,49.6712628 45.2968993,49 44.4289305,49 Z" id="Shape"></path>
            <circle id="Oval" cx="84.5" cy="50.5" r="4.5"></circle>
            <path d="M95.625,35 L6.3749997,35 C2.85408767,35 0,37.8652802 0,41.4 L0,60.6 C0,64.1345581 2.85408751,67 6.3749997,67 L95.625,67 C99.1457512,67 102,64.1345581 102,60.6 L102,41.4 C102,37.8652802 99.1457512,35 95.625,35 Z M98.8125,60.6 C98.8125,62.3643189 97.3825851,63.8 95.625,63.8 L6.3749997,63.8 C4.61741267,63.8 3.18750001,62.3643189 3.18750001,60.6 L3.18750001,41.4 C3.18750001,39.6353606 4.61741267,38.2 6.3749997,38.2 L95.625,38.2 C97.3825851,38.2 98.8125,39.6353606 98.8125,41.4 L98.8125,60.6 Z" id="Shape"></path>
            <path d="M44.4289305,85 L12.5710711,85 C11.7031031,85 11,85.6712657 11,86.5000754 C11,87.3287343 11.7031031,88 12.5710711,88 L44.4289305,88 C45.2968993,88 46,87.3287343 46,86.5000754 C46,85.6712657 45.2968993,85 44.4289305,85 Z" id="Shape"></path>
            <circle id="Oval" cx="84.5" cy="85.5" r="4.5"></circle>
            <path d="M95.625,70 L6.3749997,70 C2.85408767,70 0,72.8652771 0,76.4 L0,95.6 C0,99.1345581 2.85408751,102 6.3749997,102 L95.625,102 C99.1457512,102 102,99.1345581 102,95.6 L102,76.4 C102,72.8652771 99.1457512,70 95.625,70 Z M98.8125,95.6 C98.8125,97.3643189 97.3825851,98.8 95.625,98.8 L6.3749997,98.8 C4.61741267,98.8 3.18750001,97.3643189 3.18750001,95.6 L3.18750001,76.4 C3.18750001,74.6353576 4.61741267,73.2 6.3749997,73.2 L95.625,73.2 C97.3825851,73.2 98.8125,74.6353576 98.8125,76.4 L98.8125,95.6 Z" id="Shape"></path>
        </g>
    </g>
</svg>