<svg xmlns="http://www.w3.org/2000/svg" viewBox="0 0 102 109">
    <g fill="#CE3271" fill-rule="nonzero" transform="matrix(-1 0 0 1 102 0)">
        <path d="M96.654 0H36.975a5.268 5.268 0 0 0-5.271 5.271v17.55H5.368a5.268 5.268 0 0 0-5.272 5.272v59.7a5.268 5.268 0 0 0 5.272 5.271h26.336v10.543a5.268 5.268 0 0 0 5.271 5.272h59.679a5.268 5.268 0 0 0 5.271-5.272V5.271A5.268 5.268 0 0 0 96.654 0zM35.196 5.25c0-.964.793-1.757 1.758-1.757h59.7c.964 0 1.757.793 1.757 1.757v8.786H35.196V5.25zm0 12.3h63.215v66.729H45.739V28.093a5.268 5.268 0 0 0-5.271-5.272h-5.272V17.55zM3.611 28.093c0-.964.793-1.757 1.757-1.757h35.121c.965 0 1.757.793 1.757 1.757v5.271H3.611v-5.271zm0 8.786h38.614v42.128H3.611V36.88zM5.368 89.55a1.765 1.765 0 0 1-1.757-1.757V82.52h38.614v5.272c0 .964-.793 1.757-1.757 1.757h-35.1zm93.064 14.036h-.021c0 .964-.793 1.757-1.757 1.757H36.975a1.765 1.765 0 0 1-1.757-1.757V93.043h5.271a5.268 5.268 0 0 0 5.272-5.272h52.671v15.815z"/>
        <rect width="10.543" height="2.91" x="17.646" y="28.093" rx="1.455"/>
        <rect width="2.91" height="2.91" x="12.618" y="28.093" rx="1.455"/>
        <rect width="3.514" height="3.514" x="21.161" y="84.279" rx="1.757"/>
        <rect width="12.91" height="2.91" x="60" y="7" rx="1.455"/>
        <path d="M66 99c1.655 0 3-1.345 3-3s-1.345-3-3-3-3 1.345-3 3c.01 1.655 1.354 3 3 3z"/>
    </g>
</svg>
