<svg xmlns="http://www.w3.org/2000/svg"  viewBox="0 0 58 54">
    <g fill="#CE3271" fill-rule="nonzero">
        <path d="M54.877 25c-.62 0-1.122.519-1.122 1.16 0 14.072-11.08 25.52-24.7 25.52-9.667 0-18.303-5.735-22.361-14.705l5.83 2.681c.567.264 1.23 0 1.483-.588.252-.584-.003-1.27-.57-1.53l-8.204-3.774c-.569-.266-1.23.002-1.483.587L.097 42.83c-.252.585.003 1.27.57 1.53.148.07.303.102.455.102.43 0 .84-.256 1.027-.69l2.509-5.822C9.082 47.739 18.506 54 29.056 54 43.913 54 56 41.51 56 26.16c0-.641-.503-1.16-1.123-1.16zM57.334 9.591c-.568-.262-1.229.003-1.48.588l-2.542 5.904C48.898 6.268 39.49 0 28.919 0 14.076 0 2 12.49 2 27.84 2 28.48 2.502 29 3.122 29c.62 0 1.121-.519 1.121-1.16 0-14.072 11.07-25.52 24.676-25.52 9.646 0 18.237 5.691 22.306 14.616l-5.738-2.641c-.566-.265-1.229.002-1.48.588-.253.584.002 1.27.568 1.53l8.197 3.775c.149.069.304.1.456.1.43 0 .84-.255 1.025-.688l3.65-8.478c.252-.585-.003-1.27-.569-1.53z"/>
    </g>
</svg>
