<svg xmlns="http://www.w3.org/2000/svg"  viewBox="0 0 102 93">
    <g fill="#CE3271" fill-rule="nonzero">
        <path d="M93.881.153H8.119C3.642.153 0 3.795 0 8.272V20.07a1.66 1.66 0 0 0 3.32 0V8.27c0-2.646 2.153-4.799 4.799-4.799h85.762c2.646 0 4.8 2.153 4.8 4.8v56.66H88.278a1.66 1.66 0 0 0 0 3.32H98.68v3.042c0 2.646-2.153 4.8-4.799 4.8H8.119a4.805 4.805 0 0 1-4.8-4.8v-3.043h85.427a1.66 1.66 0 0 0 0-3.32H3.32V18.605a1.66 1.66 0 0 0-3.32 0v52.69c0 4.477 3.642 8.12 8.119 8.12h28.446l-4.083 9.55h-7.976a1.66 1.66 0 0 0 0 3.32h52.988a1.66 1.66 0 0 0 0-3.32h-7.976l-4.083-9.55h28.446c4.477 0 8.119-3.643 8.119-8.12V8.272c0-4.477-3.642-8.12-8.119-8.12zM65.908 88.965H36.092l4.138-9.535h21.44l4.238 9.535z"/>
        <path d="M52.38 70.858a1.672 1.672 0 0 0-1.784-.689c-.7.175-1.218.806-1.253 1.528-.073 1.5 1.814 2.317 2.855 1.23a1.67 1.67 0 0 0 .182-2.07z"/>
    </g>
</svg>
