<svg xmlns="http://www.w3.org/2000/svg" width="15" height="15" viewBox="0 0 15 15">
    <path fill="#358CB8" fill-rule="evenodd" d="M13.99 10.691c-1.83-.568-3.58-1.285-4.959-2.638-.104-.101-.035-.283.108-.283l2.085-.013c5.393-.033 4.535-7.073.41-7.32C8.431.242 5.318.123 2.12 0a.437.437 0 0 0-.442.369C1.112 3.667.535 6.781.042 10.146c-.62 4.222 5.869 6.545 7.015 1.1L7.5 9.144a.157.157 0 0 1 .294-.046c.898 1.619 1.235 3.607 1.448 5.58.03.284.353.421.568.24l4.3-3.6c.217-.183.149-.543-.12-.627"/>
</svg>
