<svg xmlns="http://www.w3.org/2000/svg" width="11" height="13" viewBox="0 0 11 13">
    <path fill="#3F3D8F" fill-rule="evenodd" d="M5.019 12.85L0 8.813c2.159-.583 3.765-.878 5.126-2.758l-.69-.342c-.752.49-1.633.559-2.486-.127-.853-.686-1.147-2.223-.413-3.236.734-1.014 2.218-1.12 3.072-.435.852.686 1.022 1.6.772 2.492l.495.612.88-1.493a2.412 2.412 0 0 1 .12-2.619C7.608-.105 8.983-.3 9.945.474c.963.773 1.148 2.222.414 3.236-.568.784-1.52 1.078-2.365.814L6.859 5.811l.826.45c.75-.491 1.631-.56 2.485.127.853.686 1.146 2.222.412 3.236-.734 1.014-2.218 1.12-3.07.435-.854-.686-1.024-1.6-.773-2.492l-.63-.72c-1.349 1.862-1.083 3.714-1.09 6.002"/>
</svg>
