<svg xmlns="http://www.w3.org/2000/svg" width="15" height="18" viewBox="0 0 15 18">
    <path fill="#3F3D8F" fill-rule="evenodd" d="M6.844 17.586L0 12.063c2.944-.798 5.134-1.201 6.99-3.774l-.942-.468c-1.024.67-2.225.764-3.388-.174-1.164-.94-1.565-3.042-.564-4.43C3.097 1.83 5.12 1.684 6.285 2.623c1.162.938 1.394 2.188 1.052 3.41l.676.838 1.199-2.044a3.311 3.311 0 0 1 .164-3.584c1-1.387 2.875-1.654 4.188-.594 1.311 1.058 1.564 3.041.563 4.429-.774 1.073-2.071 1.475-3.225 1.114l-1.549 1.76 1.127.617c1.023-.672 2.224-.765 3.388.174 1.163.938 1.564 3.041.562 4.429-1 1.387-3.024 1.534-4.187.595-1.164-.939-1.396-2.19-1.053-3.41l-.86-.987c-1.839 2.55-1.476 5.084-1.486 8.216"/>
</svg>
