<svg xmlns="http://www.w3.org/2000/svg" width="16" height="16" viewBox="0 0 16 16">
    <g fill="#68B037" fill-rule="evenodd">
        <path d="M15.677 5.677a7.004 7.004 0 0 1-.108 1.993c-.142.733-.396 1.51-.777 2.38-.04.089-.08.18-.123.271a12.44 12.44 0 0 1-.962 1.728c-.285.425-.59.819-.909 1.17a7.85 7.85 0 0 1-.543.544l.102-.015c.149-.025.304-.057.461-.096.467-.116.941-.365 1.409-.739l.059-.072A7.888 7.888 0 0 0 16 7.921c0-.766-.108-1.517-.323-2.244M.196 6.673l.022-.03.007-.01L.25 6.6l.002-.003.025-.032.007-.008.027-.034.001-.002.028-.033.007-.008.029-.034.001-.002.03-.033.007-.009.032-.034c.298-.32.69-.604 1.197-.866a8.396 8.396 0 0 1 1.729-.668 13.082 13.082 0 0 1 1.859-.34l.228-.026.065-.007.061-.007a31.859 31.859 0 0 1 2.721-.158c.098-.31.176-.606.231-.878v-.003l.012-.058.002-.01.01-.05.002-.015a3.959 3.959 0 0 0 .024-.142l.003-.017a8.48 8.48 0 0 0 .011-.075v-.003c.059-.386.085-.757.08-1.102a6.028 6.028 0 0 0-1.376-.335c-.997-.128-2.043-.049-3.107.237-.81.216-1.578.593-2.35 1.15A8.122 8.122 0 0 0 .17 6.71l.024-.033.002-.004z"/>
        <path d="M8.572.178c.053.077.237.374.334.98.092.57.08 1.224-.034 1.945l-.002.017a7.025 7.025 0 0 1-.027.156l-.003.016a7.522 7.522 0 0 1-.01.054l-.003.014a8.746 8.746 0 0 1-.214.85h.003l-.056.172a13.84 13.84 0 0 1-.396 1.072 24.9 24.9 0 0 1-1.153 2.402c-.408.75-.757 1.318-.883 1.52.184.311.628 1.04 1.189 1.823l.002.003a8.874 8.874 0 0 0 1.846 1.873c.17-.29.594-1.041 1.415-2.65.647-1.269 1.045-2.686 1.264-3.651.257-1.134.411-2.273.411-3.046 0-.234-.007-.461-.02-.676-.08-1.259-.366-1.802-.422-1.899a.287.287 0 0 0-.008-.012l-.002-.004a.543.543 0 0 0-.008-.01l-.004-.007a.987.987 0 0 0-.008-.01l-.006-.007-.007-.01-.007-.008a.323.323 0 0 0-.008-.009l-.008-.01-.008-.009-.009-.01-.009-.01-.01-.01-.009-.01-.011-.011a.472.472 0 0 0-.01-.01L11.675.99l-.003-.003-.011-.011-.009-.008-.004-.004-.01-.01-.012-.012-.013-.011a.91.91 0 0 1-.01-.01L11.6.92l-.013-.013-.012-.01-.015-.013a1.552 1.552 0 0 0-.012-.011l-.016-.014-.018-.015A7.715 7.715 0 0 0 8.595 0l-.161.01c.05.054.097.11.138.168"/>
        <path d="M8.595 0a7.715 7.715 0 0 1 2.92.843l.017.015.016.014.012.01.015.014.012.01.013.013.002.001.01.01.013.011.012.011.01.01.004.005.009.008.01.01.004.004a.55.55 0 0 0 .017.017l.011.012.01.009.01.01.008.01.01.01.007.01.008.01.008.008.007.009.007.009.007.008.007.01.004.005a.378.378 0 0 1 .008.011l.002.004a.347.347 0 0 1 .008.012c.056.097.343.64.422 1.9.013.214.02.441.02.675 0 .773-.154 1.912-.411 3.046-.22.965-.617 2.382-1.264 3.65-.821 1.61-1.245 2.36-1.415 2.651a8.874 8.874 0 0 1-1.847-1.873l-.001-.003a26.407 26.407 0 0 1-1.19-1.822c.127-.203.476-.771.884-1.521a24.89 24.89 0 0 0 1.208-2.537c.13-.324.246-.64.34-.937l.057-.171h-.003c.09-.3.162-.586.214-.851l.003-.014.01-.054.003-.016.012-.066.015-.09.002-.017c.115-.72.126-1.375.034-1.945-.097-.606-.28-.903-.334-.98A1.414 1.414 0 0 0 8.434.01C8.486.006 8.54.003 8.595 0"/>
        <path d="M9.532 13.252a6.11 6.11 0 0 0 1.672.627c.141.029.285.047.429.056.136-.104.455-.364.851-.8.314-.345.614-.73.893-1.144.326-.485.625-1.012.886-1.569l.004-.007.05-.107a16.114 16.114 0 0 0 .488-1.194 9.471 9.471 0 0 0 .421-1.584v-.004a6.622 6.622 0 0 0 .046-1.892l-.006-.049-.003-.024-.004-.026-.002-.015-.002-.016-.003-.02-.003-.016-.002-.015-.003-.02-.003-.019-.003-.017-.003-.014-.004-.024-.002-.014a1.047 1.047 0 0 0-.008-.04l-.005-.027-.005-.024-.003-.014-.003-.015-.005-.023-.003-.017-.003-.013-.005-.023-.006-.03-.007-.029-.006-.026-.006-.026-.007-.029-.006-.024-.008-.031-.007-.027-.007-.029a10.405 10.405 0 0 0-.009-.034l-.006-.022-.007-.027-.008-.03-.008-.029-.008-.028a5.154 5.154 0 0 0-.01-.034l-.007-.023-.009-.03-.009-.028-.01-.032-.008-.027a2.889 2.889 0 0 0-.009-.029l-.01-.03-.01-.031-.009-.028a3.106 3.106 0 0 0-.01-.034l-.01-.026-.01-.031-.01-.03-.009-.025-.012-.035-.01-.028-.005-.015-.007-.018-.01-.03-.012-.032-.01-.026-.013-.036a3.51 3.51 0 0 0-.01-.027l-.014-.035-.01-.026-.006-.016-.008-.021-.01-.027-.036-.09a8.041 8.041 0 0 0-2.4-2.452v.002l.01.024.002.007.007.02.004.009.007.02.003.008.01.027.002.008.007.022.003.01a.912.912 0 0 1 .008.023l.002.008.01.03.003.01.007.024.003.01.008.028.002.007.01.034.003.01.007.026.003.012.009.033v.004l.01.038.003.011.007.03.003.011.01.04c.122.53.184 1.158.184 1.869 0 .793-.16 1.953-.426 3.103-.03.129-.062.259-.094.387-.221.872-.612 2.155-1.22 3.32-.871 1.67-1.283 2.384-1.445 2.651"/>
        <path d="M2.629 10.942l.03.048.002.006.03.05h.001l.031.05.002.003.03.05.004.005.064.102.003.004.032.05.004.007.066.103.003.005c.01.017.022.034.033.05l.004.007.034.052v.001l.034.051.004.006.034.05.005.008.034.052v.001l.035.052.005.007.034.05.006.008.036.053v.001l.036.05.005.008.035.051.006.009.037.052.036.052.006.008.036.05.007.01.037.052.037.052.007.009.037.05.007.01a7.324 7.324 0 0 0 .154.202c.385.487.871.955 1.447 1.392a12.42 12.42 0 0 0 2.017 1.228c.687.34 1.327.497 2.013.497h.007c.494 0 .95-.083 1.354-.156l.047-.009a4.19 4.19 0 0 0 .679-.2l.029-.014.11-.055.06-.03.15-.08.057-.033a5.748 5.748 0 0 0 .116-.066l.01-.01-.028-.042h.07l.003-.004.003.004h.03c.04-.024.079-.048.112-.07l.058-.039.001.003.012-.007.019-.012.006-.004.098-.065.027-.017.013-.009.011-.008a7.378 7.378 0 0 0 .143-.099l.02-.015.003-.004.01-.005.017-.012c.016-.01.03-.022.046-.033l.046-.033.028-.021.005-.004.018-.014.034-.026.072-.055.013-.01.01-.009.07-.056.017-.013.01-.008a9.85 9.85 0 0 0 .065-.053l.029-.025.061-.052h.001a3.949 3.949 0 0 0 .09-.078l.01-.009.018-.016.027-.025a3.19 3.19 0 0 1-.383.124 6.27 6.27 0 0 1-.483.104c-.412.07-.832.063-1.247-.023a6.332 6.332 0 0 1-1.92-.767c-.356-.215-1.337-1.003-2.101-2.067a24.085 24.085 0 0 1-1.237-1.896l-.137-.005-.813-.031-.519-.017-.093-.002-.477-.01-.354-.005h-.243l-.057.002h-.009a6.936 6.936 0 0 0-1.16.127c.042.084.1.195.17.327l.003.004.058.108.065.117v.002l.07.123v.002l.074.13.001.002.078.136.002.003.082.141.002.004.058.097.029.048.003.005.06.1z"/>
        <path d="M3.488 14.563c.04.033.078.066.116.1.02.016.045.036.08.061a8.03 8.03 0 0 0 5.337 1.217 5.053 5.053 0 0 1-1.795-.49l-.065-.03a15.193 15.193 0 0 1-.987-.522 12.018 12.018 0 0 1-1.125-.738 9.144 9.144 0 0 1-1.175-1.034 7.635 7.635 0 0 1-.49-.576 21.09 21.09 0 0 1-1.827-2.917 2.034 2.034 0 0 0-.566.283 1.607 1.607 0 0 0-.31.302c.102.332.44 1.333 1.069 2.335.708 1.13 1.28 1.617 1.738 2.009l-.044.051.044-.051zM7.245 1.138c.452.06.878.157 1.266.292C8.464.828 8.353.55 8.264.423c-.07-.1-.209-.246-.392-.41H7.87L7.846 0C6.648.01 5.54.24 4.553.687a6.972 6.972 0 0 0-1.83 1.205 6.766 6.766 0 0 1 1.313-.507c1.097-.298 2.177-.38 3.209-.247"/>
        <path d="M1.597 9.26l.186-.042.167-.032.183-.03.183-.025.188-.02.167-.015.177-.012.166-.007.13-.003h.045l.027-.001h.063l.737.01.765.02.355.013c.306.01.557.02.697.027.167-.253.653-1.006 1.173-1.965.347-.64.645-1.252.886-1.822.103-.245.196-.484.278-.71a34.286 34.286 0 0 0-2.526.145l-.109.011-.06.006c-.127.014-.251.028-.37.043a12.69 12.69 0 0 0-1.672.306 8.102 8.102 0 0 0-1.664.626c-.471.236-.832.489-1.102.771-.23.24-.368.472-.513.728l-.008.014-.003.005-.006.01-.001.005a.36.36 0 0 0-.007.012l-.002.003-.007.015v.001c-.033.07-.07.16-.108.269l-.001.019-.001.027-.003.055-.003.079a7.87 7.87 0 0 0 .003.58l.003.042.003.045.001.018.001.02v.034l.015.194h.002l.005.067V8.8l.002.014.01.11c.047.414.127.826.239 1.227l.018-.034.004-.006c.007-.01.167-.262.455-.472a2.39 2.39 0 0 1 .832-.378M.517 10.83a1.35 1.35 0 0 1 .008-.335c.149.472.468 1.368.986 2.262.065.112.129.218.191.318A8.493 8.493 0 0 1 .517 10.83"/>
    </g>
</svg>
