<svg xmlns="http://www.w3.org/2000/svg" width="19" height="16" viewBox="0 0 19 16">
    <path fill="#BE1056" fill-rule="nonzero" d="M17.066 4.554c0-.175-.004-.348-.012-.52A7.93 7.93 0 0 0 19 1.98c-.7.308-1.45.515-2.24.601a3.94 3.94 0 0 0 1.715-2.2c-.753.45-1.588.771-2.475.938A3.906 3.906 0 0 0 13.155 0c-2.153-.034-3.898 1.753-3.898 3.992 0 .318.034.627.101.925C6.116 4.712 3.243 3.054 1.322.555a4.182 4.182 0 0 0-.528 2.049c0 1.418.688 2.678 1.734 3.422a3.78 3.78 0 0 1-1.766-.531v.052c0 1.982 1.344 3.643 3.128 4.03a3.754 3.754 0 0 1-1.76.059c.496 1.624 1.936 2.81 3.641 2.85A7.606 7.606 0 0 1 0 14.16 10.648 10.648 0 0 0 5.977 16c7.168.002 11.089-6.128 11.089-11.446z"/>
</svg>
