<svg version="1.1" xmlns="http://www.w3.org/2000/svg" xmlns:xlink="http://www.w3.org/1999/xlink" viewBox="0 0 50 50" style="transform-origin:50% 50%; animation: pcf_rotate 4s infinite linear">
	<defs>
		<clipPath id="SVGID_2_">
			<polygon points="17,13 17,8 33,8 33,13 25,21"/>
		</clipPath>
		<clipPath id="SVGID_4_">
			<polygon points="25,29 33,37 33,42 17,42 17,37"/>
		</clipPath>
	</defs>
	<path style="fill:rgb(100,100,100)" d="M38,14V6h2V2H10v4h2v8l9,9v4l-9,9v8h-2v4h30v-4h-2v-8l-9-9v-4L38,14z M26,27l9,9v8H15v-8l9-9v-4l-9-9V6h20v8l-9,9V27z"/>
	<g clip-path="url(#SVGID_2_)">
		<rect style="animation: pcf_flow_top 4s infinite linear" x="17" y="8" fill="rgb(0, 140, 230)" width="16" height="13"/>
	</g>
	<g clip-path="url(#SVGID_4_)">
		<rect style="animation: pcf_flow_bottom 4s infinite linear" x="17" y="29" fill="rgb(0, 140, 230)" width="16" height="13"/>
	</g>
</svg>