<?xml version="1.0" encoding="UTF-8"?>
<svg width="1440px" height="304px" viewBox="0 0 1440 304" version="1.1" xmlns="http://www.w3.org/2000/svg" xmlns:xlink="http://www.w3.org/1999/xlink">
    <!-- Generator: Sketch 50.2 (55047) - http://www.bohemiancoding.com/sketch -->
    <title>advantage copy</title>
    <desc>Created with Sketch.</desc>
    <defs>
        <rect id="path-1" x="0" y="0" width="1440" height="304"></rect>
        <filter x="-9.7%" y="-22.7%" width="119.4%" height="145.3%" filterUnits="objectBoundingBox" id="filter-3">
            <feGaussianBlur stdDeviation="50" in="SourceGraphic"></feGaussianBlur>
        </filter>
        <filter x="-17.9%" y="-49.0%" width="135.8%" height="198.0%" filterUnits="objectBoundingBox" id="filter-4">
            <feGaussianBlur stdDeviation="50" in="SourceGraphic"></feGaussianBlur>
        </filter>
    </defs>
    <g id="About-us" stroke="none" stroke-width="1" fill="none" fill-rule="evenodd">
        <g id="advantage-copy">
            <g id="Pattern">
                <mask id="mask-2" fill="white">
                    <use xlink:href="#path-1"></use>
                </mask>
                <use id="Mask" fill="#191D39" xlink:href="#path-1"></use>
                <g mask="url(#mask-2)" id="Group-46">
                    <g transform="translate(-177.000000, -361.000000)">
                        <g>
                            <g id="Group-7" transform="translate(1292.180546, 663.397986)" fill="#3F3D8F">
                                <g id="Group-6" transform="translate(0.000000, 0.000000)">
                                    <path d="M418.69113,336.258404 C371.286122,321.337752 325.940071,302.49705 290.191816,266.977889 C287.498028,264.300734 289.274421,259.544197 292.98921,259.522495 L347.015662,259.189084 C486.789324,258.321031 464.555217,73.4099036 357.657064,66.9034499 C274.63378,61.8411211 193.970857,58.7062651 111.094507,55.4569839 C105.507253,55.2379978 100.611341,59.3770335 99.6355494,65.1416963 C84.9515819,151.775385 70.0095383,233.55192 57.2168734,321.937498 C41.1615232,432.835247 209.319794,493.853473 239.045645,350.841698 L250.4933,295.619701 C251.295785,291.752918 256.223721,290.975616 258.101837,294.408372 C281.377668,336.939036 290.120233,389.160331 295.635904,440.955491 C296.430854,448.426668 304.77406,452.03698 310.350011,447.304117 L421.782393,352.713932 C427.431811,347.915964 425.657302,338.450238 418.69113,336.258404" id="Fill-4" transform="translate(250.514135, 252.441285) rotate(20.000000) translate(-250.514135, -252.441285) "></path>
                                </g>
                            </g>
                            <path d="M1030.60993,761.270135 L959.717998,651.337337 C956.697002,646.65497 956.566082,640.555209 959.382514,635.734017 L986.309632,589.625039 C989.083514,584.874115 994.220516,582.219289 999.509713,582.805441 L1108.8236,594.891845 C1113.86568,595.448862 1118.20734,598.862945 1120.1286,603.776688 L1140.25603,655.294726 C1142.43422,660.86832 1141.07919,667.269726 1136.857,671.357371 L1042.47789,762.709809 C1038.93485,766.139317 1033.30853,765.455472 1030.60993,761.270135" id="Fill-13" fill="#3F3D8F"></path>
                            <g id="Group-24" transform="translate(0.000000, 39.419637)" fill="#3F3D8F">
                                <path d="M152.777928,388.722129 L0,266.62923 C65.7107433,248.996655 114.601448,240.087817 156.037854,183.218993 L135.005441,172.873909 C112.140138,187.704262 85.3308489,189.771222 59.3709077,169.024495 C33.3978744,148.2692 24.444534,101.781451 46.786154,71.1164009 C69.1392295,40.4393539 114.315059,37.2120854 140.288092,57.9690951 C166.248033,78.7141074 171.422674,106.338703 163.791633,133.365149 L178.872063,151.878667 L205.630621,106.703764 C191.451907,82.7794717 192.009957,51.1906314 209.289855,27.4737212 C231.633111,-3.19132848 273.475372,-9.08027945 302.775428,14.3366987 C332.055846,37.736538 337.695255,81.5677464 315.350362,112.232796 C298.070464,135.949706 269.114075,144.841405 243.36688,136.8615 L208.784173,175.782392 L233.932406,189.418159 C256.776435,174.5501 283.593906,172.49171 309.56694,193.247005 C335.530154,213.997159 344.473675,260.474625 322.122236,291.149958 C299.780616,321.815008 254.61297,325.054274 228.648119,304.30412 C202.676722,283.548824 197.493898,255.913945 205.146214,228.926918 L185.949964,207.121004 C144.903047,263.456806 152.992311,319.492677 152.777928,388.722129" id="Fill-22"></path>
                            </g>
                            <g id="Group-27" transform="translate(1301.024604, 332.496067)" fill="#3F3D8F">
                                <path d="M73.616718,224.745664 L0,120.400172 C43.7046076,121.856984 75.4987032,125.548719 110.912757,98.1452158 L99.6666672,87.7812791 C82.96773,92.6573168 66.0167705,88.8884568 53.5072962,71.1581897 C40.9929123,53.4193531 43.4313106,22.9565433 62.5260969,8.18103504 C81.6274292,-6.60132878 110.148507,-0.0936609077 122.662891,17.6468896 C135.172365,35.3754428 133.63241,53.4519171 124.269943,68.7450223 L130.428126,83.0440671 L154.746648,60.1172636 C150.076052,42.6372255 155.844746,23.1862055 170.612603,11.7596525 C189.707389,-3.01756962 216.619778,1.21747049 230.737941,21.2289348 C244.847921,41.226688 240.813926,69.4220118 221.71914,84.1992339 C206.949647,95.6257869 187.498102,95.6789177 172.929899,85.8908505 L144.84086,103.473722 L158.067125,116.648451 C174.761153,111.746704 191.715385,115.520706 204.229769,133.259543 C216.74088,150.993238 214.299209,181.449192 195.19624,196.229842 C176.10309,211.00535 147.585285,204.506252 135.075811,186.772557 C122.559791,169.03372 124.096473,150.952104 133.465486,135.686421 L125.325491,118.574871 C90.2452852,145.719576 85.6336031,181.930797 73.616718,224.745664" id="Fill-25"></path>
                            </g>
                            <g id="Group-30" transform="translate(273.296992, 569.013889)" fill="#3F3D8F">
                                <path d="M18.5210219,11.9982344 C-3.08580554,30.5768807 -6.25572334,64.2858119 11.4840335,86.9143974 C41.7823599,125.61077 71.9039434,162.416713 102.955064,200.415529 C143.709046,173.018882 182.396117,147.913715 222.994631,119.161374 C246.146323,102.767947 252.275049,69.5114846 236.620204,45.2495551 L236.615295,45.2495551 C220.966996,21.030473 189.212177,14.5930749 166.055575,30.9865021 L123.002298,61.4715926 L90.0495545,19.3988428 C72.3196167,-3.22974266 40.1311224,-6.54099216 18.5210219,11.9982344" id="Fill-28"></path>
                            </g>
                            <g id="Group-36" transform="translate(582.740190, 383.912985)" fill="#3F3D8F">
                                <polygon id="Fill-34" transform="translate(131.196800, 169.597971) rotate(-10.000000) translate(-131.196800, -169.597971) " points="237.201914 155.161073 150.150808 322.236804 25.191687 184.037095 112.242793 16.9591385"></polygon>
                            </g>
                        </g>
                    </g>
                </g>
                <!-- <ellipse id="Oval-3" fill="#E4E4FF" opacity="0.0799999982" filter="url(#filter-3)" mask="url(#mask-2)" cx="720.5" cy="-74" rx="771.5" ry="331"></ellipse>
                <ellipse id="Oval-3" fill="#0600FF" opacity="0.049999997" filter="url(#filter-4)" mask="url(#mask-2)" cx="720.5" cy="71" rx="418.5" ry="153"></ellipse> -->
            </g>
        </g>
    </g>
</svg>