<?xml version="1.0" encoding="UTF-8"?>
<svg viewBox="0 0 94 110" version="1.1" xmlns="http://www.w3.org/2000/svg" xmlns:xlink="http://www.w3.org/1999/xlink">
    <!-- Generator: Sketch 50.2 (55047) - http://www.bohemiancoding.com/sketch -->
    <title>Product icon desktop/poker</title>
    <desc>Created with Sketch.</desc>
    <defs></defs>
    <g id="Product-icon-desktop/poker" stroke="none" stroke-width="1" fill="none" fill-rule="evenodd">
        <path d="M42.8894262,110 L0,75.4503362 C18.4470107,70.4606968 32.1721233,67.9396873 43.8045869,51.8470333 L37.9001468,48.9195972 C31.4811586,53.116268 23.954973,53.7011732 16.6672254,47.830296 C9.37580242,41.9569938 6.86232657,28.8019609 13.134301,20.1244115 C19.4094914,11.4434672 32.0917251,10.5302196 39.3831481,16.4040068 C46.6708957,22.274399 48.1235754,30.0915654 45.9813093,37.7394682 L50.2148461,42.9783955 L57.7267897,30.1948696 C53.7463923,23.4248097 53.9030538,14.4858474 58.7540484,7.77447206 C65.0264823,-0.903077305 76.7728815,-2.56952374 84.9983013,4.05697732 C93.218208,10.6786284 94.8013624,23.0819175 88.5284691,31.7594668 C83.6774745,38.4708422 75.5485326,40.9870017 68.3205093,38.7288601 L58.6120882,49.7426355 L65.6719645,53.6012641 C72.0849803,49.3939233 79.613463,48.811443 86.9048859,54.6847452 C94.1935524,60.5565924 96.7042718,73.7087154 90.4295408,82.3891747 C84.1575663,91.0667241 71.4776297,91.9833666 64.1885038,86.1115194 C56.8975403,80.2382172 55.4425635,72.4181409 57.590802,64.7813931 L52.201829,58.6107883 C40.6787068,74.5526085 42.94961,90.4095545 42.8894262,110" id="Product/poker" fill="#3F3D8F"></path>
    </g>
</svg>