<svg xmlns="http://www.w3.org/2000/svg" width="126" height="69" viewBox="0 0 126 69">
    <g fill="none" fill-rule="evenodd">
        <path fill="#3F3D8F" d="M125.145 61.954L108.65 4.32a5.39 5.39 0 0 0-5.322-3.91L36.717 2.23a5.392 5.392 0 0 0-5.16 4.447L27.069 31.81l-.002.01-3.734 20.91c-.552 3.089 1.629 5.998 4.742 6.325l91.33 9.762c.195.02.388.03.578.03 3.517 0 6.16-3.401 5.162-6.893"/>
        <path fill="#944794" d="M29.75 16.793l.821-4.596a99.353 99.353 0 0 0-2.747-.038C12.812 12.159.642 15.526.642 19.68c0 .805.462 1.58 1.308 2.307 3.52-3.025 13.771-5.214 25.874-5.214.648 0 1.29.008 1.926.02"/>
        <path fill="#16A89D" d="M53.697 21.987c.847-.727 1.309-1.502 1.309-2.307 0-3.897-10.713-7.102-24.435-7.483l-.82 4.596c11.253.218 20.614 2.331 23.946 5.194"/>
        <path fill="#209F93" d="M27.824 27.201l.116.001v-.001h-.116"/>
        <path fill="#763D90" d="M27.068 31.81c-6.317-1.757-12.936-2.68-18.824-2.302C3.54 30.86.642 32.697.642 34.722c0 .805.462 1.58 1.308 2.307 3.447-2.961 13.346-5.12 25.117-5.21l.001-.01z"/>
        <path fill="#2F90BD" d="M53.697 37.03c.847-.728 1.309-1.503 1.309-2.308 0-2.025-2.898-3.862-7.603-5.214-7.13-.66-11.886 2.307-19.58 2.307 12.103 0 22.354 2.19 25.874 5.214"/>
        <path fill="#944794" d="M27.824 27.201c-12.103 0-22.353-2.19-25.873-5.214-.847.727-1.309 1.502-1.309 2.307 0 2.025 2.898 3.862 7.602 5.214 4.782 1.375 11.434 2.246 18.825 2.302l.822-4.609h-.067"/>
        <path fill="#16A89D" d="M53.697 21.987c-3.514 3.02-13.732 5.205-25.805 5.214l-.823 4.609c.251.002.502.005.755.005 7.693 0 14.635-.886 19.58-2.307 4.704-1.352 7.602-3.189 7.602-5.214 0-.805-.462-1.58-1.309-2.307"/>
        <path fill="#763D90" d="M1.95 37.03c-.846.726-1.308 1.501-1.308 2.306 0 3.832 10.36 6.992 23.75 7.459l.82-4.588c-10.947-.289-19.997-2.374-23.262-5.178"/>
        <path fill="#2F90BD" d="M55.005 39.336c0-.805-.461-1.58-1.308-2.307-3.52 3.025-13.77 5.214-25.873 5.214-.882 0-1.752-.013-2.612-.036l-.82 4.588a98.35 98.35 0 0 0 3.432.062c15.012 0 27.181-3.367 27.181-7.52"/>
        <path fill="#FFF" d="M69.46 22.912c-.03.045-.093.068-.191.068h-3.216c-.399 0-.726-.057-.981-.17a1.627 1.627 0 0 1-.615-.452 1.628 1.628 0 0 1-.322-.645 3.118 3.118 0 0 1-.09-.758v-3.87c0-.263.036-.518.107-.763.072-.245.188-.462.35-.65.161-.19.37-.34.626-.453.256-.113.564-.17.925-.17h3.148c.098 0 .16.021.186.063.026.04.04.107.04.197v.713c0 .098-.014.164-.04.198-.027.034-.088.051-.186.051H66.2c-.286 0-.487.064-.604.192-.117.128-.175.313-.175.555v1.188h3.407c.099 0 .16.018.187.056.026.038.04.11.04.215v.623c0 .09-.014.156-.04.197-.027.042-.088.063-.187.063h-3.407v1.643c0 .24.062.423.186.546.125.125.322.186.593.186h3.069c.105 0 .17.02.197.057.026.039.04.111.04.217v.708a.352.352 0 0 1-.046.195M73.86 21.51h.068l.52-1.777 1.477-4.526c.023-.075.055-.12.096-.135a.53.53 0 0 1 .175-.023h1.072c.06 0 .096.017.107.051a.189.189 0 0 1-.006.119l-2.493 7.24c-.067.204-.148.34-.243.407-.093.068-.23.106-.411.114h-.609c-.196 0-.345-.032-.446-.096-.102-.064-.194-.206-.276-.424l-2.482-7.241a.156.156 0 0 1 0-.119c.014-.034.052-.05.112-.05h1.083c.083 0 .141.012.175.039.034.026.058.07.074.13l1.444 4.491.564 1.8zM83.901 22.912c-.03.045-.094.068-.192.068h-3.215c-.399 0-.726-.057-.982-.17a1.63 1.63 0 0 1-.615-.452 1.624 1.624 0 0 1-.321-.645 3.118 3.118 0 0 1-.09-.758v-3.87c0-.263.035-.518.107-.763.07-.245.187-.462.35-.65.16-.19.37-.34.625-.453.256-.113.565-.17.926-.17h3.147c.098 0 .16.021.187.063.026.04.04.107.04.197v.713c0 .098-.014.164-.04.198-.027.034-.089.051-.187.051h-3c-.287 0-.488.064-.604.192-.117.128-.176.313-.176.555v1.188h3.408c.098 0 .16.018.186.056.027.038.04.11.04.215v.623c0 .09-.013.156-.04.197-.026.042-.088.063-.186.063H79.86v1.643c0 .24.063.423.187.546.124.125.322.186.592.186h3.07c.104 0 .17.02.197.057.026.039.04.111.04.217v.708a.354.354 0 0 1-.046.195M86.868 17.12v5.622c0 .106-.017.172-.051.198-.034.027-.103.04-.209.04h-.834a.34.34 0 0 1-.192-.046c-.045-.03-.068-.093-.068-.192V15.74c0-.241.047-.416.141-.526.094-.109.265-.164.513-.164h.395c.196 0 .339.036.43.108.09.071.195.201.315.39l2.245 3.745.959 1.63h.045v-5.635c0-.098.019-.163.057-.193.037-.03.105-.045.203-.045h.835c.097 0 .165.015.203.045.037.03.056.095.056.193V22.3c0 .219-.045.386-.135.504-.09.116-.264.175-.52.175h-.394c-.098 0-.18-.008-.248-.023a.486.486 0 0 1-.18-.079.714.714 0 0 1-.153-.152 4.264 4.264 0 0 1-.163-.233l-2.257-3.756-.948-1.618h-.045zM68.648 31.412c0-.363-.114-.658-.344-.889-.23-.23-.566-.344-1.01-.344h-1.873v2.466h1.862c.27 0 .492-.04.666-.119.173-.08.312-.179.417-.3.105-.12.179-.254.22-.402.042-.146.062-.284.062-.412zm-3.227-2.376h1.828c.105 0 .22-.013.344-.04a.948.948 0 0 0 .344-.147.82.82 0 0 0 .26-.294c.068-.124.102-.289.102-.492 0-.272-.09-.487-.266-.645-.176-.159-.415-.237-.716-.237H65.42v1.855zm3.419.509a1.85 1.85 0 0 1 .937.803c.097.174.17.359.22.555.048.196.073.395.073.6 0 .354-.07.678-.209.972-.14.294-.327.547-.564.758a2.484 2.484 0 0 1-.835.487c-.32.113-.664.17-1.032.17h-2.753c-.241 0-.406-.052-.497-.153-.09-.102-.135-.266-.135-.492v-6.642c0-.218.045-.38.135-.486.09-.105.256-.158.497-.158l2.617-.012c.346 0 .67.038.97.113.301.076.56.193.774.351.214.158.383.362.507.611.124.25.186.547.186.894 0 .34-.084.647-.254.922-.169.275-.381.485-.637.628v.079zM77.09 33.821c-.03.045-.095.068-.192.068h-3.216c-.399 0-.726-.056-.982-.17a1.628 1.628 0 0 1-.615-.452 1.628 1.628 0 0 1-.321-.645 3.118 3.118 0 0 1-.09-.758v-3.869c0-.264.036-.518.107-.763.071-.245.188-.463.35-.651.161-.189.37-.34.626-.453.256-.113.564-.17.925-.17h3.148c.098 0 .16.022.186.063.026.041.04.107.04.198v.713c0 .098-.014.163-.04.197-.027.034-.088.052-.186.052h-3.001c-.286 0-.487.064-.604.192-.117.128-.175.313-.175.554v1.188h3.407c.098 0 .16.019.187.057.026.037.04.109.04.215v.622a.38.38 0 0 1-.04.198c-.027.041-.089.062-.187.062H73.05v1.644c0 .24.062.422.186.546.124.124.322.186.593.186h3.069c.105 0 .17.019.197.057.026.038.04.11.04.217v.708a.352.352 0 0 1-.046.194M84.011 27.124c-.027.03-.08.045-.163.045h-2.144v6.483c0 .105-.017.171-.05.198-.035.026-.104.04-.21.04h-.88c-.09 0-.156-.016-.197-.046-.042-.03-.062-.094-.062-.192v-6.483h-2.099c-.082 0-.135-.015-.158-.045-.022-.03-.033-.083-.033-.158v-.781c0-.083.01-.14.033-.17s.076-.045.158-.045h5.642c.083 0 .136.015.163.045.026.03.04.087.04.17v.78c0 .076-.014.129-.04.159M69.167 40.454c.151.03.263.085.339.164.075.08.113.206.113.379v3.044c0 .09-.012.166-.035.226-.022.06-.074.11-.157.147-.21.113-.43.203-.654.271a5.143 5.143 0 0 1-.655.153 6.04 6.04 0 0 1-.598.068 8.103 8.103 0 0 1-.474.017c-.496 0-.942-.078-1.337-.232a2.55 2.55 0 0 1-1.015-.724c-.282-.328-.498-.743-.65-1.244-.15-.502-.225-1.1-.225-1.794 0-.656.081-1.24.243-1.753.161-.513.39-.949.688-1.307a2.98 2.98 0 0 1 1.066-.82 3.279 3.279 0 0 1 1.377-.283c.323 0 .662.032 1.015.096a3.97 3.97 0 0 1 1.117.401c.053.046.064.099.034.159l-.147.305c-.038.054-.082.065-.135.034a3.546 3.546 0 0 0-.976-.344 5.023 5.023 0 0 0-.897-.086c-.489 0-.91.097-1.264.29a2.52 2.52 0 0 0-.874.78c-.23.328-.399.711-.508 1.148a5.742 5.742 0 0 0-.164 1.392c0 .528.051 1.005.153 1.43.101.427.261.79.48 1.092.217.302.498.536.84.702.342.166.754.249 1.236.249.12 0 .257-.006.411-.017.155-.012.318-.034.491-.068s.348-.077.525-.13c.176-.053.351-.124.524-.215v-3.01c-.37 0-2.114.012-2.545.016a.095.095 0 0 1-.095-.097l.004-.328c0-.051.04-.093.092-.094.457-.01 2.497-.05 2.657-.017M104.65 40.454c.15.03.263.085.339.164.075.08.112.206.112.379v3.044c0 .09-.01.166-.034.226-.022.06-.075.11-.157.147a3.53 3.53 0 0 1-.655.271 5.132 5.132 0 0 1-.654.153c-.21.034-.41.057-.598.068a8.111 8.111 0 0 1-.474.017c-.496 0-.942-.078-1.337-.232a2.548 2.548 0 0 1-1.016-.724c-.281-.328-.498-.743-.648-1.244-.15-.502-.226-1.1-.226-1.794 0-.656.08-1.24.243-1.753.161-.513.39-.949.688-1.307a2.98 2.98 0 0 1 1.066-.82 3.279 3.279 0 0 1 1.377-.283c.323 0 .662.032 1.015.096a3.97 3.97 0 0 1 1.117.401c.052.046.064.099.034.159l-.147.305c-.038.054-.083.065-.135.034a3.54 3.54 0 0 0-.976-.344 5.02 5.02 0 0 0-.897-.086c-.489 0-.91.097-1.264.29a2.516 2.516 0 0 0-.874.78c-.23.328-.399.711-.508 1.148a5.742 5.742 0 0 0-.163 1.392c0 .528.05 1.005.152 1.43.101.427.261.79.48 1.092.218.302.498.536.84.702.342.166.754.249 1.236.249.12 0 .257-.006.411-.017.154-.012.318-.034.49-.068.174-.034.349-.077.526-.13.176-.053.351-.124.524-.215v-3.01c-.37 0-2.114.012-2.545.016a.095.095 0 0 1-.096-.097l.005-.328c0-.051.04-.093.091-.094.458-.01 2.498-.05 2.658-.017M74.809 39.277l-.61-1.833h-.045l-.62 1.8-1.038 3.043h3.328l-1.015-3.01zm1.985 5.522a.2.2 0 0 1-.09-.018c-.023-.01-.042-.039-.056-.084l-.666-1.901h-3.655l-.666 1.9c-.023.069-.072.103-.147.103h-.418c-.082 0-.109-.038-.078-.114l2.719-7.546c.037-.113.076-.186.118-.22.042-.034.115-.051.22-.051h.203c.12 0 .201.017.243.05.04.035.08.108.118.221l2.64 7.546c.015.016.019.038.011.068-.007.03-.037.046-.09.046h-.406zM82.305 43.893a.408.408 0 0 1-.237-.056.508.508 0 0 1-.147-.227 346.985 346.985 0 0 0-2.08-4.796l-.407-.95h-.057v6.833c0 .068-.036.102-.11.102h-.332c-.066 0-.1-.034-.1-.102V37.23c0-.106.02-.192.056-.26.037-.068.129-.102.276-.102h.165c.114 0 .195.02.244.062.049.042.104.13.164.266.03.075.09.215.18.418.092.204.195.446.312.725.118.279.246.578.386.899a163.03 163.03 0 0 1 .775 1.816c.114.271.208.494.283.667.12.272.24.543.357.815.117.271.232.547.346.826h.045l.677-1.584 1.952-4.582c.06-.136.116-.224.169-.266.052-.041.131-.062.237-.062h.17c.15 0 .245.034.287.102a.492.492 0 0 1 .062.26v7.467c0 .068-.038.102-.113.102h-.339c-.075 0-.112-.034-.112-.102v-6.879h-.046l-.474 1.098-2.024 4.694a.55.55 0 0 1-.147.221c-.053.042-.132.062-.237.062h-.18zM88.922 44.799h-.349c-.076 0-.113-.034-.113-.102V36.98c0-.075.037-.113.113-.113h.35c.075 0 .112.038.112.113v7.716c0 .068-.037.102-.113.102M92.092 37.66v7.037c0 .067-.037.101-.113.101h-.338c-.075 0-.113-.034-.113-.101V37.23c0-.113.023-.204.068-.272.045-.068.14-.102.282-.102h.158c.105 0 .183.025.231.074.05.05.111.138.187.266l3.238 5.227.97 1.606h.045v-7.06c0-.075.037-.113.113-.113h.338c.075 0 .113.038.113.114v7.466c0 .106-.02.193-.062.26-.041.068-.134.102-.276.102h-.17c-.105 0-.182-.024-.231-.073a1.421 1.421 0 0 1-.186-.266l-3.43-5.51-.778-1.29h-.046z"/>
    </g>
</svg>
