<?xml version="1.0" encoding="UTF-8"?>
<svg viewBox="0 0 94 95" version="1.1" xmlns="http://www.w3.org/2000/svg" xmlns:xlink="http://www.w3.org/1999/xlink">
    <!-- Generator: Sketch 50.2 (55047) - http://www.bohemiancoding.com/sketch -->
    <title>Product icon desktop/fantasy sport</title>
    <desc>Created with Sketch.</desc>
    <defs></defs>
    <g id="Product-icon-desktop/fantasy-sport" stroke="none" stroke-width="1" fill="none" fill-rule="evenodd">
        <path d="M87.6652825,67.7104706 C76.2027275,64.1127163 65.2380296,59.5697369 56.5940834,51.0051504 C55.9427242,50.3596192 56.3722568,49.2126953 57.2704948,49.2074625 L70.334118,49.1270684 C104.13146,48.9177584 98.7552418,4.33091288 72.9072145,2.76203894 C52.8321425,1.5413808 33.3278069,0.785486115 13.2882636,0.00200055541 C11.9372627,-0.0508026608 10.7534288,0.947225696 10.5174819,2.33723469 C6.96689115,23.226853 3.35389746,42.9452865 0.260624617,64.2573305 C-3.62156717,90.9976404 37.0391877,105.710709 44.2269134,71.2268794 L46.9949622,57.9114305 C47.1890035,56.9790494 48.3805808,56.7916217 48.8347102,57.6193478 C54.4628179,67.8745887 56.5767745,80.4664908 57.9104666,92.9556407 C58.1026859,94.7571342 60.1200773,95.6276737 61.4683453,94.4864583 L88.4127513,71.6783231 C89.7787836,70.5214094 89.3497064,68.2389785 87.6652825,67.7104706" id="Product/fantasy-sport" fill="#358CB8"></path>
    </g>
</svg>