<?xml version="1.0" encoding="UTF-8"?>
<svg  viewBox="0 0 102 102" version="1.1" xmlns="http://www.w3.org/2000/svg" xmlns:xlink="http://www.w3.org/1999/xlink">
    <!-- Generator: Sketch 50.2 (55047) - http://www.bohemiancoding.com/sketch -->
    <title>cogwheels</title>
    <desc>Created with Sketch.</desc>
    <defs></defs>
    <g id="Why-us" stroke="none" stroke-width="1" fill="none" fill-rule="evenodd">
        <g id="Why-Us" transform="translate(-465.000000, -1010.000000)" fill="#CE3271">
            <g id="cogwheels" transform="translate(465.000000, 1010.000000)">
                <g id="Shape">
                    <path d="M32.2999336,15.3 C22.95,15.3 15.3,22.95 15.3,32.2999336 C15.3,41.6498672 22.95,49.2998672 32.2999336,49.2998672 C41.6498672,49.2998672 49.2998672,41.6498672 49.2998672,32.2999336 C49.3000664,22.95 41.6500664,15.3 32.2999336,15.3 Z M32.2999336,45.9 C24.8198672,45.9 18.6998672,39.78 18.6998672,32.2999336 C18.6998672,24.8198672 24.8198672,18.6998672 32.2999336,18.6998672 C39.78,18.6998672 45.9,24.8198672 45.9,32.2999336 C45.9,39.78 39.78,45.9 32.2999336,45.9 Z" fill-rule="nonzero"></path>
                    <path d="M100.300066,69.7000664 L96.7300664,69.7000664 C96.0501328,69.7000664 95.5401328,69.36 95.2000664,68.6800664 C95.0301328,68.1700664 95.0301328,67.4901328 95.5401328,66.9801328 L98.0901328,64.4301328 C98.7700664,63.7501992 98.7700664,62.7301992 98.0901328,62.0500664 L90.9501328,54.9100664 C90.2701992,54.2301328 89.2501992,54.2301328 88.5700664,54.9100664 L86.0200664,57.4600664 C85.68,57.8001328 85.0000664,57.9700664 84.4900664,57.8001328 L84.3201328,57.8001328 C83.6401992,57.4600664 83.3001328,56.9500664 83.3001328,56.2701328 L83.3001328,52.7001328 C83.3001328,51.6801328 82.6201992,51.0001992 81.6001992,51.0001992 L71.4001992,51.0001992 C70.3801992,51.0001992 69.7002656,51.6801328 69.7002656,52.7001328 L69.7002656,56.2701328 C69.7002656,56.9500664 69.3601992,57.4600664 68.6802656,57.8001328 C68.1702656,57.9700664 67.490332,57.9700664 66.980332,57.4600664 L64.430332,54.9100664 C63.7503984,54.2301328 62.7303984,54.2301328 62.0502656,54.9100664 L54.9102656,62.0500664 C54.230332,62.73 54.230332,63.75 54.9102656,64.4301328 L57.4602656,66.9801328 C57.800332,67.3201992 57.9702656,68.0001328 57.800332,68.5101328 L57.800332,68.6800664 C57.4602656,69.36 56.9502656,69.7000664 56.270332,69.7000664 L52.700332,69.7000664 C51.680332,69.7000664 51.0003984,70.38 51.0003984,71.4 L51.0003984,81.6 C51.0003984,82.62 51.680332,83.2999336 52.700332,83.2999336 L56.270332,83.2999336 C56.9502656,83.2999336 57.4602656,83.64 57.800332,84.3199336 C57.9702656,84.8299336 57.9702656,85.5098672 57.4602656,86.0198672 L54.9102656,88.5698672 C54.230332,89.2498008 54.230332,90.2698008 54.9102656,90.9499336 L62.0502656,98.0899336 C62.7301992,98.7698672 63.7501992,98.7698672 64.430332,98.0899336 L66.980332,95.5399336 C67.3203984,95.1998672 68.000332,95.0299336 68.510332,95.1998672 L68.6802656,95.1998672 C69.3601992,95.5399336 69.7002656,96.0499336 69.7002656,96.7298672 L69.7002656,100.299867 C69.7002656,101.319867 70.3801992,101.999801 71.4001992,101.999801 L81.6001992,101.999801 C82.6201992,101.999801 83.3001328,101.319867 83.3001328,100.299867 L83.3001328,96.7298672 C83.3001328,96.0499336 83.6401992,95.5399336 84.3201328,95.1998672 C84.8301328,95.0299336 85.5100664,95.0299336 86.0200664,95.5399336 L88.5700664,98.0899336 C89.25,98.7698672 90.27,98.7698672 90.9501328,98.0899336 L98.0901328,90.9499336 C98.7700664,90.27 98.7700664,89.25 98.0901328,88.5698672 L95.5401328,86.0198672 C95.2000664,85.6798008 95.0301328,84.9998672 95.2000664,84.4898672 L95.2000664,84.3199336 C95.5401328,83.64 96.0501328,83.2999336 96.7300664,83.2999336 L100.300066,83.2999336 C101.320066,83.2999336 102,82.62 102,81.6 L102,71.4 C102,70.38 101.320066,69.7000664 100.300066,69.7000664 Z M98.5999336,79.9000664 L96.9,79.9000664 C94.86,79.9000664 93.1600664,81.09 92.31,82.9600664 C91.4599336,84.8301328 91.9699336,87.0400664 93.33,88.4001328 L94.35,89.5900664 L89.5900664,94.35 L88.4001328,93.1600664 C87.0400664,91.8 84.8301328,91.29 82.9600664,92.1400664 C81.09,92.82 79.9000664,94.6900664 79.9000664,96.7300664 L79.9000664,98.6001328 L73.2700664,98.6001328 L73.2700664,96.7300664 C73.2700664,94.6900664 72.0801328,92.9901328 70.2100664,92.1400664 C68.34,91.29 66.1300664,91.8 64.77,93.1600664 L63.4099336,94.5201328 L58.65,89.76 L59.8399336,88.5700664 C61.2,87.21 61.71,85.0000664 60.8599336,83.13 C60.18,81.2599336 58.3099336,80.07 56.2699336,80.07 L54.3998672,80.07 L54.3998672,73.2700664 L56.4398672,73.2700664 C58.4798672,73.2700664 60.1798008,72.0801328 61.0298672,70.2100664 C61.8799336,68.34 61.3699336,66.1300664 60.0098672,64.77 L58.6498008,63.4099336 L63.4097344,58.65 L64.599668,59.8399336 C65.9597344,61.2 68.169668,61.71 70.0397344,60.8599336 C71.9098008,60.18 73.0997344,58.3099336 73.0997344,56.2699336 L73.0997344,54.3998672 L79.899668,54.3998672 L79.899668,56.0998008 C79.899668,58.1398008 81.0896016,59.8397344 82.959668,60.6898008 C84.8297344,61.5398672 87.039668,61.0298672 88.3997344,59.6698008 L89.589668,58.6498008 L94.3496016,63.4097344 L93.159668,64.599668 C91.7996016,65.9597344 91.2896016,68.169668 92.139668,70.0397344 C92.8196016,71.9098008 94.689668,73.0997344 96.729668,73.0997344 L98.5997344,73.0997344 L98.5997344,79.9000664 L98.5999336,79.9000664 Z" fill-rule="nonzero"></path>
                    <path d="M76.5,64.6000664 C69.87,64.6000664 64.6000664,69.87 64.6000664,76.5 C64.6000664,83.13 69.87,88.3999336 76.5,88.3999336 C83.13,88.3999336 88.3999336,83.13 88.3999336,76.5 C88.3999336,69.87 83.13,64.6000664 76.5,64.6000664 Z M76.5,85.0000664 C71.7400664,85.0000664 67.9999336,81.2601328 67.9999336,76.5 C67.9999336,71.7400664 71.7398672,67.9999336 76.5,67.9999336 C81.2599336,67.9999336 85.0000664,71.7398672 85.0000664,76.5 C85.0000664,81.2599336 81.2599336,85.0000664 76.5,85.0000664 Z" fill-rule="nonzero"></path>
                    <path d="M58.8199336,51.51 C59.4998672,50.8300664 59.4998672,49.8100664 58.8199336,49.1299336 L58.4798672,48.7898672 C56.9498672,47.2598672 56.4398672,44.7098672 57.4598672,42.4999336 C58.3099336,40.29 60.3499336,38.9299336 62.5598672,38.9299336 L62.8999336,38.9299336 C63.9199336,38.9299336 64.5998672,38.25 64.5998672,37.23 L64.5998672,27.03 C64.5998672,26.01 63.9199336,25.3300664 62.8999336,25.3300664 L62.3899336,25.3300664 C60.18,25.3300664 58.14,23.97 57.2899336,21.7600664 C56.2699336,19.5501328 56.7799336,17.1700664 58.3099336,15.6400664 L58.65,15.3 C59.3299336,14.6200664 59.3299336,13.6000664 58.65,12.9199336 L51.51,5.77993359 C50.8300664,5.1 49.8100664,5.1 49.1299336,5.77993359 L48.7898672,6.12 C47.2598672,7.65 44.7098672,8.16 42.4999336,7.14 C40.29,6.28993359 38.9299336,4.24993359 38.9299336,2.04 L38.9299336,1.69993359 C38.9299336,0.679933594 38.25,0 37.23,0 L27.03,0 C26.01,0 25.3300664,0.679933594 25.3300664,1.69993359 L25.3300664,2.20993359 C25.3300664,4.41986719 23.97,6.45986719 21.7600664,7.30993359 C19.5501328,8.32993359 17.1700664,7.81993359 15.6400664,6.28993359 L15.3,5.95006641 C14.6200664,5.27013281 13.6000664,5.27013281 12.9199336,5.95006641 L5.77993359,13.0900664 C5.1,13.77 5.1,14.79 5.77993359,15.4701328 L6.12,15.8101992 C7.65,17.3401992 8.16,19.8901992 7.14,22.1001328 C6.28993359,24.3100664 4.24993359,25.6701328 2.04,25.6701328 L1.69993359,25.6701328 C0.679933594,25.6701328 0,26.3500664 0,27.3700664 L0,37.5700664 C0,38.5900664 0.679933594,39.27 1.69993359,39.27 L2.04,39.27 C4.24993359,39.27 6.28993359,40.6300664 7.14,42.84 C8.16,45.0499336 7.65,47.43 6.12,48.96 L5.77993359,49.3000664 C5.1,49.98 5.1,51 5.77993359,51.6801328 L12.9199336,58.8201328 C13.5998672,59.5000664 14.6198672,59.5000664 15.3,58.8201328 L15.6400664,58.4800664 C17.1700664,56.9500664 19.7200664,56.4400664 21.93,57.4600664 C24.1399336,58.3101328 25.5,60.3501328 25.5,62.5600664 L25.5,62.9001328 C25.5,63.9201328 26.1799336,64.6000664 27.1999336,64.6000664 L37.3999336,64.6000664 C38.4199336,64.6000664 39.0998672,63.9201328 39.27,62.9001328 L39.27,62.3901328 C39.27,60.1801992 40.6300664,58.1401992 42.84,57.2901328 C45.0499336,56.2701328 47.43,56.7801328 48.96,58.3101328 L49.3000664,58.6501992 C49.98,59.3301328 51,59.3301328 51.6801328,58.6501992 L58.8199336,51.51 Z M50.1499336,55.2499336 C47.7698672,53.55 44.37,53.04 41.31,54.3998672 C38.25,55.59 36.21,58.14 35.7,61.2 L28.7299336,61.2 C28.3898672,58.14 26.1799336,55.59 23.1199336,54.06 C20.0599336,52.8700664 16.83,53.2099336 14.28,55.08 L9.34993359,50.1499336 C11.0498672,47.7698672 11.5598672,44.37 10.2,41.31 C9.01006641,38.25 6.46006641,36.21 3.40006641,35.7 L3.40006641,28.7299336 C6.46006641,28.2199336 9.18,26.1799336 10.3701328,23.1199336 C11.5602656,20.0599336 11.2201992,16.83 9.35013281,14.28 L14.28,9.52006641 C16.6600664,11.22 20.0599336,11.73 23.1199336,10.3701328 C26.1799336,9.18019922 28.2199336,6.63019922 28.7299336,3.57019922 L35.7,3.57019922 C36.21,6.63019922 38.25,9.35013281 41.31,10.5402656 C44.37,11.7303984 47.5999336,11.390332 50.1499336,9.52026562 L55.08,14.450332 C53.3800664,16.8303984 52.8700664,20.2302656 54.2299336,23.2902656 C55.4198672,26.3502656 57.9698672,28.3902656 61.0298672,28.9002656 L61.0298672,35.870332 C57.9698672,36.380332 55.2499336,38.420332 54.0598008,41.480332 C52.8698672,44.540332 53.2097344,47.7702656 55.0798008,50.3202656 L50.1499336,55.2499336 Z" fill-rule="nonzero"></path>
                </g>
            </g>
        </g>
    </g>
</svg>