<?xml version="1.0" encoding="UTF-8"?>
<svg  viewBox="0 0 73 102" version="1.1" xmlns="http://www.w3.org/2000/svg" xmlns:xlink="http://www.w3.org/1999/xlink">
    <!-- Generator: Sketch 50.2 (55047) - http://www.bohemiancoding.com/sketch -->
    <title>title (2)</title>
    <desc>Created with Sketch.</desc>
    <defs></defs>
    <g id="Why-us" stroke="none" stroke-width="1" fill="none" fill-rule="evenodd">
        <g id="Why-Us" transform="translate(-327.000000, -324.000000)">
            <g id="title-(2)" transform="translate(327.000000, 324.000000)">
                <circle id="Oval" stroke="#CE3271" stroke-width="3.39999986" cx="36" cy="37.5" r="22.8000001"></circle>
                <path d="M69.5438789,37.5101016 C69.5438789,36.2267344 70.1056758,34.7403633 70.700543,33.1667344 C71.5986211,30.7910508 72.5271797,28.3342852 71.7420586,25.9165664 C70.9240664,23.3976445 68.5738828,21.8666484 66.5004141,20.5153477 C65.1385547,19.6280273 63.852,18.7901133 63.1511484,17.8268906 C62.4353555,16.8433477 62.0283516,15.3454219 61.5972422,13.7596406 C60.9527695,11.3879414 60.2222344,8.69988281 58.109918,7.16271094 C56.018918,5.64107813 53.369707,5.76598828 50.8081523,5.88671484 C49.1534414,5.96480859 47.5905703,6.03851953 46.4092031,5.65482422 C45.3097148,5.29782422 44.134125,4.34755078 42.8896055,3.34149609 C40.9514063,1.77563672 38.7546211,0 36.058793,0 C33.3627656,0 31.1659805,1.77563672 29.2277813,3.34229297 C27.9832617,4.34814844 26.8076719,5.29842187 25.708582,5.65542188 C24.5272148,6.03911719 22.9641445,5.96520703 21.3094336,5.8873125 C18.7478789,5.76638672 16.0984688,5.64147656 14.0074688,7.16330859 C11.8951523,8.70048047 11.1648164,11.3885391 10.5201445,13.7602383 C10.0892344,15.3460195 9.68203125,16.8439453 8.96623828,17.8274883 C8.26538672,18.7905117 6.97883203,19.628625 5.61697266,20.5159453 C3.54330469,21.8668477 1.19312109,23.398043 0.375527344,25.9167656 C-0.40959375,28.3344844 0.518964844,30.79125 1.41704297,33.1671328 C2.01171094,34.7407617 2.57350781,36.2271328 2.57350781,37.5105 C2.57350781,38.7938672 2.01171094,40.2802383 1.41684375,41.8538672 C0.518765625,44.22975 -0.409792969,46.6865156 0.375328125,49.1042344 C1.19332031,51.622957 3.54350391,53.1541523 5.61697266,54.5050547 C6.97883203,55.392375 8.26538672,56.2304883 8.96623828,57.1935117 C9.68203125,58.1770547 10.0890352,59.6751797 10.5201445,61.2607617 C11.1646172,63.6324609 11.8951523,66.3205195 14.0074688,67.8576914 C16.0982695,69.3793242 18.7474805,69.2544141 21.3092344,69.1336875 C22.9637461,69.0553945 24.5268164,68.9818828 25.7081836,69.3655781 C26.8076719,69.7225781 27.9832617,70.6728516 29.2279805,71.6789062 C30.1645078,72.4357383 31.1623945,73.2399844 32.2467422,73.8707109 L25.81875,96.9280898 L19.8864141,90.3172148 C19.4509219,89.831918 18.7737773,89.6432578 18.1498242,89.8329141 L9.65613281,92.4211641 L14.9814492,73.3240547 C15.2300742,72.4321523 14.7087188,71.5075781 13.8168164,71.2587539 C12.9245156,71.0103281 12.0001406,71.5314844 11.7515156,72.4233867 L5.60462109,94.4659453 C5.44026563,95.0556328 5.61019922,95.6881523 6.04828125,96.115875 C6.48636328,96.5437969 7.12306641,96.6985898 7.70837109,96.5200898 L18.1044023,93.3521133 L25.3645313,101.442984 C25.6864688,101.801777 26.1422813,102 26.6124375,101.999801 C26.7393398,101.999801 26.8674375,101.985457 26.9943398,101.955773 C27.5906016,101.81632 28.0631484,101.363098 28.2277031,100.77341 L35.4171094,74.9825508 C35.628082,75.0046641 35.8410469,75.0198047 36.0583945,75.0198047 C36.2751445,75.0198047 36.4879102,75.0044648 36.6984844,74.9825508 L43.8908789,100.77341 C44.0552344,101.363098 44.5281797,101.81632 45.1242422,101.955773 C45.2509453,101.985258 45.3788438,101.999801 45.5057461,101.999801 C45.9761016,101.999801 46.4319141,101.801578 46.7538516,101.442785 L54.0115898,93.3519141 L64.4098125,96.5196914 C64.9951172,96.6979922 65.6314219,96.5431992 66.0697031,96.1154766 C66.5075859,95.6875547 66.6777188,95.0552344 66.5133633,94.4657461 L58.900418,67.1628164 C60.4178672,65.5879922 61.0404258,63.3069375 61.5966445,61.2597656 C62.0275547,59.6739844 62.4347578,58.1760586 63.1505508,57.1925156 C63.8514023,56.2294922 65.137957,55.3913789 66.4998164,54.5040586 C68.5734844,53.1531562 70.923668,51.6219609 71.7412617,49.1034375 C72.5263828,46.6857187 71.5978242,44.2289531 70.6997461,41.8530703 C70.1054766,40.2798398 69.5438789,38.793668 69.5438789,37.5101016 Z M62.4626484,92.4211641 L53.9663672,89.8329141 C53.3426133,89.6424609 52.6650703,89.8317187 52.2295781,90.3172148 L46.2996328,96.9278906 L39.8694492,73.8705117 C40.9543945,73.2395859 41.9524805,72.4353398 42.8894062,71.6779102 C44.1339258,70.6720547 45.3095156,69.7219805 46.4090039,69.364582 C47.5907695,68.9808867 49.1536406,69.0547969 50.8081523,69.1326914 C52.5309961,69.2139727 54.2924883,69.2948555 55.8979922,68.8776914 L62.4626484,92.4211641 Z M68.5525664,48.0684961 C68.1007383,49.4600391 66.4342734,50.5457813 64.669793,51.6952734 C63.1134961,52.7092969 61.5040078,53.7577852 60.4397812,55.22025 C59.3610117,56.7026367 58.8526055,58.5727031 58.361332,60.3812109 C57.8132812,62.3981016 57.2955117,64.302832 56.1368555,65.1463242 C54.998918,65.9740781 53.0401992,65.8818398 50.9659336,65.7840234 C49.0837148,65.6955703 47.1371484,65.603332 45.3732656,66.1760859 C43.6838906,66.7247344 42.2084766,67.9172578 40.7814727,69.0707344 C39.1291523,70.4062969 37.5688711,71.6673516 36.0585937,71.6673516 C34.5483164,71.6673516 32.9876367,70.4058984 31.3355156,69.0703359 C29.9087109,67.9170586 28.4328984,66.7241367 26.7437227,66.1758867 C25.6312852,65.8147031 24.4461328,65.7178828 23.2504219,65.7178828 C22.5503672,65.7178828 21.8463281,65.7509531 21.1512539,65.7838242 C19.0773867,65.8818398 17.1184688,65.9740781 15.9805313,65.146125 C14.821875,64.302832 14.3041055,62.3979023 13.7560547,60.3810117 C13.2647813,58.5725039 12.756375,56.7022383 11.6776055,55.2200508 C10.6135781,53.7577852 9.00428906,52.7092969 7.44759375,51.6950742 C5.68311328,50.545582 4.01664844,49.4596406 3.56482031,48.0680977 C3.14347266,46.7703867 3.82858594,44.9578945 4.55374219,43.0392188 C5.22889453,41.2530234 5.92695703,39.4062656 5.92695703,37.5105 C5.92695703,35.6147344 5.22889453,33.7675781 4.55394141,31.9817813 C3.82858594,30.0631055 3.14367188,28.2506133 3.56501953,26.9527031 C4.01684766,25.5611602 5.6833125,24.475418 7.44779297,23.3259258 C9.00408984,22.3119023 10.6135781,21.2634141 11.6778047,19.8013477 C12.7565742,18.3189609 13.2649805,16.4488945 13.7562539,14.6403867 C14.3043047,12.6234961 14.8220742,10.7187656 15.9807305,9.87527344 C17.1184688,9.04732031 19.0777852,9.13955859 21.1516523,9.23757422 C23.0336719,9.32622656 24.9804375,9.41826563 26.7443203,8.84551172 C28.4336953,8.29686328 29.9091094,7.10433984 31.3361133,5.9510625 C32.9880352,4.61510156 34.5487148,3.35364844 36.058793,3.35364844 C37.5688711,3.35364844 39.12975,4.61510156 40.7816719,5.95026563 C42.2084766,7.10374219 43.6842891,8.29646484 45.3734648,8.84491406 C47.1373477,9.41766797 49.0835156,9.32602734 50.9659336,9.23697656 C53.0398008,9.13935938 54.998918,9.04692188 56.1366562,9.87467578 C57.2953125,10.7179688 57.813082,12.6228984 58.3611328,14.6397891 C58.8524062,16.4482969 59.3608125,18.3185625 60.439582,19.80075 C61.5036094,21.2630156 63.1128984,22.3115039 64.6693945,23.3253281 C66.433875,24.4748203 68.1003398,25.5605625 68.5523672,26.9523047 C68.9737148,28.2502148 68.2888008,30.0625078 67.5634453,31.9813828 C66.888293,33.7673789 66.1902305,35.6143359 66.1902305,37.5101016 C66.1902305,39.4060664 66.8886914,41.252625 67.5638437,43.0388203 C68.289,44.9576953 68.9741133,46.7701875 68.5525664,48.0684961 Z" id="Shape" fill="#CE3271" fill-rule="nonzero"></path>
                <path d="M42.5343984,27.082793 L29.5831875,27.082793 C28.6572187,27.082793 27.9065625,27.8334492 27.9065625,28.759418 C27.9065625,29.6853867 28.6572187,30.436043 29.5831875,30.436043 L42.5343984,30.436043 C43.4603672,30.436043 44.2110234,29.6853867 44.2110234,28.759418 C44.2110234,27.8334492 43.4603672,27.082793 42.5343984,27.082793 Z" id="Shape" fill="#CE3271" fill-rule="nonzero"></path>
                <path d="M42.5343984,44.5841602 L29.5831875,44.5841602 C28.6572187,44.5841602 27.9065625,45.3348164 27.9065625,46.2607852 C27.9065625,47.1867539 28.6572187,47.9374102 29.5831875,47.9374102 L42.5343984,47.9374102 C43.4603672,47.9374102 44.2110234,47.1867539 44.2110234,46.2607852 C44.2110234,45.3348164 43.4603672,44.5841602 42.5343984,44.5841602 Z" id="Shape" fill="#CE3271" fill-rule="nonzero"></path>
                <path d="M47.1771914,35.8334766 L42.1267969,35.8334766 C41.2008281,35.8334766 40.4501719,36.5841328 40.4501719,37.5101016 C40.4501719,38.4360703 41.2008281,39.1867266 42.1267969,39.1867266 L47.1771914,39.1867266 C48.1031602,39.1867266 48.8538164,38.4362695 48.8538164,37.5101016 C48.8538164,36.5841328 48.1031602,35.8334766 47.1771914,35.8334766 Z" id="Shape" fill="#CE3271" fill-rule="nonzero"></path>
                <path d="M36.8761875,35.8334766 L24.9401953,35.8334766 C24.0142266,35.8334766 23.2635703,36.5841328 23.2635703,37.5101016 C23.2635703,38.4360703 24.0142266,39.1867266 24.9401953,39.1867266 L36.8761875,39.1867266 C37.8021562,39.1867266 38.5528125,38.4360703 38.5528125,37.5101016 C38.5528125,36.5841328 37.8021562,35.8334766 36.8761875,35.8334766 Z" id="Shape" fill="#CE3271" fill-rule="nonzero"></path>
            </g>
        </g>
    </g>
</svg>