<?xml version="1.0" encoding="UTF-8"?>
<svg  viewBox="0 0 102 102" version="1.1" xmlns="http://www.w3.org/2000/svg" xmlns:xlink="http://www.w3.org/1999/xlink">
    <!-- Generator: Sketch 50.2 (55047) - http://www.bohemiancoding.com/sketch -->
    <title>square</title>
    <desc>Created with Sketch.</desc>
    <defs></defs>
    <g id="Why-us" stroke="none" stroke-width="1" fill="none" fill-rule="evenodd">
        <g id="Why-Us" transform="translate(-465.000000, -555.000000)" fill="#CE3271">
            <g id="square" transform="translate(465.000000, 555.000000)">
                <path d="M101.177706,84.0143617 L68.7690511,51.6059234 C68.1088723,50.9435745 67.1097064,50.7491234 66.2461787,51.1039532 C65.3826511,51.4611702 64.8175277,52.3066851 64.8175277,53.2424809 L64.8175277,99.5402809 C64.8175277,100.476294 65.3826511,101.321591 66.2461787,101.678809 C66.5311277,101.798604 66.8338723,101.855247 67.1322766,101.855247 C67.7336426,101.855247 68.3258936,101.620213 68.7690511,101.177055 L81.9802213,87.9658851 L99.5409319,87.9658851 C100.476945,87.9658851 101.322243,87.4029319 101.67946,86.537234 C102.036677,85.6713191 101.837668,84.6767106 101.177706,84.0143617 Z M81.7047937,84.5277959 C80.9847887,84.5277959 80.2962982,84.8137139 79.7879996,85.3220125 L68.1499939,96.9600182 L68.1499939,55.8300171 L96.8477727,84.5277959 L81.7047937,84.5277959 Z" id="Shape" fill-rule="nonzero"></path>
                <path d="M64.8099931,75.5 L64.8099916,78.9000254 C64.8099916,78.9334278 64.8103192,78.9667537 64.8109712,79 L8,79 C3.581722,79 7.64651036e-15,75.418278 7.10542736e-15,71 L7.10542736e-15,8 C6.56434436e-15,3.581722 3.581722,8.11624501e-16 8,0 L71,0 C75.418278,-8.11624501e-16 79,3.581722 79,8 L79,61.8864642 C77.8670366,60.7453694 76.8913702,59.7499339 75.9460076,58.7999878 C75.8058729,58.6591737 75.6572037,58.5201772 75.5,58.3829984 L75.5,8.5 C75.5,5.73857625 73.2614237,3.5 70.5,3.5 L8.5,3.5 C5.73857625,3.5 3.5,5.73857625 3.5,8.5 L3.5,70.5 C3.5,73.2614237 5.73857625,75.5 8.5,75.5 L64.8099931,75.5 Z" id="Combined-Shape"></path>
            </g>
        </g>
    </g>
</svg>