<?xml version="1.0" encoding="UTF-8"?>
<svg  viewBox="0 0 102 97" version="1.1" xmlns="http://www.w3.org/2000/svg" xmlns:xlink="http://www.w3.org/1999/xlink">
    <!-- Generator: Sketch 50.2 (55047) - http://www.bohemiancoding.com/sketch -->
    <title>Advantages/desktop/casino/support</title>
    <desc>Created with Sketch.</desc>
    <defs></defs>
    <g id="Why-us" stroke="none" stroke-width="1" fill="none" fill-rule="evenodd">
        <g id="Why-Us" transform="translate(-312.000000, -782.000000)" fill="#CE3271">
            <g id="Advantages/desktop/casino/support" transform="translate(312.000000, 782.000000)">
                <g id="support">
                    <path d="M87.4285714,36.5909239 C87.4285714,16.3336044 71.1267857,0 51,0 C30.8732143,0 14.5714286,16.3336044 14.5714286,36.4996747 C14.5714286,36.4996747 14.5714286,36.4996747 14.5714286,36.5909239 C6.46607143,37.0471698 0,43.7996096 0,52.0120364 L0,53.8370202 C0,62.4144437 6.92142857,69.3493819 15.4821429,69.3493819 L16.3017857,69.3493819 L22.7678571,79.66054 C27.3214286,86.960475 35.0625,91.2491867 43.6232143,91.2491867 L44.8982143,91.2491867 C45.7178571,94.3516591 48.5410714,96.7241379 51.9107143,96.7241379 C55.9178571,96.7241379 59.1964286,93.4391672 59.1964286,89.424203 C59.1964286,85.4092388 55.9178571,82.1242681 51.9107143,82.1242681 C48.5410714,82.1242681 45.7178571,84.4967469 44.8982143,87.5992193 L43.6232143,87.5992193 C36.3375,87.5992193 29.6892857,83.8580026 25.8642857,77.6530579 L20.5821429,69.3493819 L21.8571429,69.3493819 C23.8607143,69.3493819 25.5,67.7068966 25.5,65.6994144 L25.5,40.1496422 C25.5,38.1421601 23.8607143,36.4996747 21.8571429,36.4996747 L18.2142857,36.4996747 C18.2142857,18.3410865 32.8767857,3.64996747 51,3.64996747 C69.1232143,3.64996747 83.7857143,18.3410865 83.7857143,36.4996747 L80.1428571,36.4996747 C78.1392857,36.4996747 76.5,38.1421601 76.5,40.1496422 L76.5,65.6994144 C76.5,67.7068966 78.1392857,69.3493819 80.1428571,69.3493819 L86.5178571,69.3493819 C95.0785714,69.3493819 102,62.4144437 102,53.8370202 L102,52.0120364 C102,43.7996096 95.5339286,37.0471698 87.4285714,36.5909239 Z M51.9107143,85.7742355 C53.9142857,85.7742355 55.5535714,87.4167209 55.5535714,89.424203 C55.5535714,91.4316851 53.9142857,93.0741705 51.9107143,93.0741705 C49.9071429,93.0741705 48.2678571,91.4316851 48.2678571,89.424203 C48.2678571,87.4167209 49.9071429,85.7742355 51.9107143,85.7742355 Z M21.8571429,40.1496422 L21.8571429,65.6994144 L15.4821429,65.6994144 C8.925,65.6994144 3.64285714,60.4069616 3.64285714,53.8370202 L3.64285714,52.0120364 C3.64285714,45.442095 8.925,40.1496422 15.4821429,40.1496422 L21.8571429,40.1496422 Z M98.3571429,53.8370202 C98.3571429,60.4069616 93.075,65.6994144 86.5178571,65.6994144 L80.1428571,65.6994144 L80.1428571,40.1496422 L86.5178571,40.1496422 C93.075,40.1496422 98.3571429,45.442095 98.3571429,52.0120364 L98.3571429,53.8370202 Z" id="Shape" fill-rule="nonzero"></path>
                </g>
            </g>
        </g>
    </g>
</svg>