<?xml version="1.0" encoding="UTF-8"?>
<svg width="1440px" height="359px" viewBox="0 0 1440 359" version="1.1" xmlns="http://www.w3.org/2000/svg" xmlns:xlink="http://www.w3.org/1999/xlink">
    <!-- Generator: Sketch 50.2 (55047) - http://www.bohemiancoding.com/sketch -->
    <title>Events, news_articles</title>
    <desc>Created with Sketch.</desc>
    <defs>
        <rect id="path-1" x="0" y="0" width="1440" height="359"></rect>
        <filter x="-7.7%" y="-18.0%" width="115.4%" height="136.1%" filterUnits="objectBoundingBox" id="filter-3">
            <feGaussianBlur stdDeviation="50" in="SourceGraphic"></feGaussianBlur>
        </filter>
    </defs>
    <g id="Events" stroke="none" stroke-width="1" fill="none" fill-rule="evenodd">
        <g id="Events,-news_articles">
            <g id="Pattern">
                <mask id="mask-2" fill="white">
                    <use xlink:href="#path-1"></use>
                </mask>
                <use id="Mask" fill="#191D39" xlink:href="#path-1"></use>
                <!-- <ellipse id="Oval-3" fill="#E4E4FF" opacity="0.0799999982" filter="url(#filter-3)" mask="url(#mask-2)" cx="719.5" cy="-112.61809" rx="974.5" ry="415.899497"></ellipse> -->
                <g mask="url(#mask-2)" fill="#3F3D8F" id="Group-46">
                    <g>
                        <path d="M806.717136,304.61663 L552.55257,217.084469 C545.415755,214.625027 541.651784,205.930426 544.036178,197.402073 L597.579477,5.79521562 C599.258535,-0.218849847 605.98786,-2.03558094 609.193781,2.65878364 L637.502113,44.1248138 C640.951873,49.1808107 646.008686,52.428646 651.682462,53.2393194 L689.767298,58.6689459 C695.441075,59.4779054 701.325961,57.7880027 706.274764,53.93002 L749.92864,19.8937344 C753.568236,17.0555206 758.309202,18.6751535 759.649503,23.2135534 L775.854214,78.1165381 C777.672376,84.2797126 781.46744,89.2722953 786.499705,92.1225065 L820.280523,111.258169 C825.311151,114.10838 831.218948,114.610552 836.851812,112.668707 L882.608602,96.8974242 C887.853613,95.0892626 892.259095,100.738268 890.19873,106.634075 L824.725281,294.072734 C821.810658,302.415986 813.853952,307.076072 806.717136,304.61663" id="Fill-20"></path>
                        <g id="Group-24" transform="translate(0.000000, 39.419637)">
                            <path d="M152.777928,388.722129 L0,266.62923 C65.7107433,248.996655 114.601448,240.087817 156.037854,183.218993 L135.005441,172.873909 C112.140138,187.704262 85.3308489,189.771222 59.3709077,169.024495 C33.3978744,148.2692 24.444534,101.781451 46.786154,71.1164009 C69.1392295,40.4393539 114.315059,37.2120854 140.288092,57.9690951 C166.248033,78.7141074 171.422674,106.338703 163.791633,133.365149 L178.872063,151.878667 L205.630621,106.703764 C191.451907,82.7794717 192.009957,51.1906314 209.289855,27.4737212 C231.633111,-3.19132848 273.475372,-9.08027945 302.775428,14.3366987 C332.055846,37.736538 337.695255,81.5677464 315.350362,112.232796 C298.070464,135.949706 269.114075,144.841405 243.36688,136.8615 L208.784173,175.782392 L233.932406,189.418159 C256.776435,174.5501 283.593906,172.49171 309.56694,193.247005 C335.530154,213.997159 344.473675,260.474625 322.122236,291.149958 C299.780616,321.815008 254.61297,325.054274 228.648119,304.30412 C202.676722,283.548824 197.493898,255.913945 205.146214,228.926918 L185.949964,207.121004 C144.903047,263.456806 152.992311,319.492677 152.777928,388.722129" id="Fill-22"></path>
                        </g>
                        <g id="Group-27" transform="translate(1301.024604, 332.496067)">
                            <path d="M73.616718,224.745664 L0,120.400172 C43.7046076,121.856984 75.4987032,125.548719 110.912757,98.1452158 L99.6666672,87.7812791 C82.96773,92.6573168 66.0167705,88.8884568 53.5072962,71.1581897 C40.9929123,53.4193531 43.4313106,22.9565433 62.5260969,8.18103504 C81.6274292,-6.60132878 110.148507,-0.0936609077 122.662891,17.6468896 C135.172365,35.3754428 133.63241,53.4519171 124.269943,68.7450223 L130.428126,83.0440671 L154.746648,60.1172636 C150.076052,42.6372255 155.844746,23.1862055 170.612603,11.7596525 C189.707389,-3.01756962 216.619778,1.21747049 230.737941,21.2289348 C244.847921,41.226688 240.813926,69.4220118 221.71914,84.1992339 C206.949647,95.6257869 187.498102,95.6789177 172.929899,85.8908505 L144.84086,103.473722 L158.067125,116.648451 C174.761153,111.746704 191.715385,115.520706 204.229769,133.259543 C216.74088,150.993238 214.299209,181.449192 195.19624,196.229842 C176.10309,211.00535 147.585285,204.506252 135.075811,186.772557 C122.559791,169.03372 124.096473,150.952104 133.465486,135.686421 L125.325491,118.574871 C90.2452852,145.719576 85.6336031,181.930797 73.616718,224.745664" id="Fill-25"></path>
                        </g>
                        <g id="Group-33" transform="translate(1081.732406, 49.703020)">
                            <polygon id="Fill-31" points="194.913124 175.85957 50.8103294 280.657531 0 104.797962 144.102794 0"></polygon>
                        </g>
                    </g>
                </g>
            </g>
        </g>
    </g>
</svg>