<svg width="89" height="50" xmlns="http://www.w3.org/2000/svg"><g fill="none" fill-rule="evenodd"><path d="M88.504 44.126L76.816 2.959A3.824 3.824 0 0 0 73.044.166l-47.205 1.3c-1.81.048-3.338 1.376-3.657 3.177l-3.18 17.951-.002.007-2.646 14.936c-.391 2.206 1.154 4.284 3.36 4.518l64.722 6.973c.139.015.276.022.41.022 2.493 0 4.366-2.43 3.658-4.924" fill="#3F3D8F"/><path d="M21.083 11.995l.582-3.283c-.64-.017-1.29-.027-1.947-.027C9.079 8.685.455 11.09.455 14.057c0 .575.327 1.129.927 1.648 2.495-2.16 9.76-3.724 18.336-3.724.459 0 .914.005 1.365.014" fill="#944794"/><path d="M38.053 15.705c.6-.52.927-1.073.927-1.648 0-2.783-7.591-5.073-17.315-5.345l-.582 3.283c7.975.156 14.609 1.665 16.97 3.71" fill="#16A89D"/><path d="M19.718 19.43h.082v-.001h-.082" fill="#209F93"/><path d="M19.182 22.721c-4.477-1.254-9.167-1.914-13.34-1.644-3.333.966-5.387 2.278-5.387 3.724 0 .575.327 1.13.927 1.648 2.443-2.115 9.458-3.657 17.799-3.72l.001-.008z" fill="#763D90"/><path d="M38.053 26.45c.6-.52.927-1.074.927-1.649 0-1.446-2.053-2.758-5.387-3.724-5.053-.471-8.424 1.648-13.875 1.648 8.576 0 15.84 1.564 18.335 3.724" fill="#2F90BD"/><path d="M19.718 19.43c-8.577 0-15.841-1.564-18.336-3.725-.6.52-.927 1.073-.927 1.648 0 1.447 2.054 2.758 5.387 3.724 3.389.982 8.103 1.604 13.34 1.644l.583-3.291h-.047" fill="#944794"/><path d="M38.053 15.705c-2.49 2.157-9.732 3.718-18.287 3.724l-.584 3.292c.179.002.356.004.536.004 5.451 0 10.37-.633 13.875-1.648 3.334-.966 5.387-2.277 5.387-3.724 0-.575-.327-1.129-.927-1.648" fill="#16A89D"/><path d="M1.382 26.45c-.6.519-.927 1.072-.927 1.647 0 2.737 7.341 4.994 16.83 5.328l.582-3.277c-7.758-.206-14.172-1.696-16.485-3.699" fill="#763D90"/><path d="M38.98 28.097c0-.575-.327-1.128-.927-1.648-2.495 2.16-9.759 3.724-18.335 3.724-.625 0-1.242-.009-1.852-.025l-.58 3.277a69.15 69.15 0 0 0 2.432.044c10.638 0 19.262-2.405 19.262-5.372" fill="#2F90BD"/><path d="M49.224 16.365c-.021.033-.067.05-.136.05H46.81c-.282 0-.514-.041-.695-.122a1.154 1.154 0 0 1-.436-.323 1.166 1.166 0 0 1-.228-.46 2.244 2.244 0 0 1-.064-.542v-2.764c0-.189.026-.37.076-.545a1.204 1.204 0 0 1 .692-.788c.181-.081.4-.122.655-.122h2.231c.07 0 .113.015.132.045.018.03.028.077.028.141v.51c0 .07-.01.116-.028.14-.019.025-.063.037-.132.037h-2.127c-.202 0-.345.046-.427.138-.083.091-.125.223-.125.396v.848h2.415c.07 0 .113.013.132.04.019.027.028.079.028.154v.445c0 .064-.01.111-.028.14-.019.03-.062.045-.132.045h-2.415v1.174c0 .172.044.302.132.39.089.09.229.133.42.133h2.175c.075 0 .121.014.14.041.019.027.028.08.028.155v.506c0 .06-.01.106-.032.138m3.117-1.001h.048l.368-1.27 1.047-3.232c.016-.053.04-.086.068-.096a.369.369 0 0 1 .124-.017h.76c.043 0 .068.013.076.037a.136.136 0 0 1-.004.085l-1.767 5.172c-.048.145-.105.242-.172.29a.53.53 0 0 1-.292.081h-.431a.592.592 0 0 1-.316-.069c-.072-.045-.138-.146-.196-.302l-1.76-5.172a.112.112 0 0 1 0-.085c.011-.024.038-.037.08-.037h.768c.059 0 .1.01.124.029.024.018.041.05.052.093l1.024 3.208.4 1.285zm7.115 1.001c-.02.033-.066.05-.135.05h-2.28c-.282 0-.514-.041-.695-.122a1.155 1.155 0 0 1-.436-.323 1.163 1.163 0 0 1-.227-.46 2.244 2.244 0 0 1-.065-.542v-2.764c0-.189.026-.37.077-.545.05-.175.132-.33.247-.465.115-.135.263-.243.444-.323a1.6 1.6 0 0 1 .656-.122h2.23c.07 0 .114.015.132.045.019.03.028.077.028.141v.51c0 .07-.01.116-.028.14-.018.025-.062.037-.132.037h-2.126c-.203 0-.346.046-.428.138-.083.091-.124.223-.124.396v.848h2.414c.07 0 .114.013.132.04.02.027.029.079.029.154v.445a.27.27 0 0 1-.029.14c-.018.03-.062.045-.132.045h-2.414v1.174c0 .172.044.302.132.39.088.09.228.133.42.133h2.175c.074 0 .12.014.14.041.018.027.027.08.027.155v.506c0 .06-.01.106-.032.138m2.103-4.137v4.017c0 .075-.012.122-.036.14-.024.02-.073.03-.148.03h-.592a.24.24 0 0 1-.135-.033c-.033-.022-.049-.067-.049-.137v-5.003c0-.172.034-.297.1-.375.067-.078.188-.118.364-.118h.28c.139 0 .24.026.304.077.064.051.139.144.224.279l1.59 2.675.68 1.164h.032v-4.025c0-.07.014-.116.04-.137.027-.022.075-.033.144-.033h.592c.07 0 .117.011.144.033.026.021.04.067.04.137v5.01c0 .157-.032.276-.096.36-.064.083-.187.125-.368.125h-.28a.827.827 0 0 1-.176-.016.343.343 0 0 1-.128-.056.508.508 0 0 1-.108-.11 3.046 3.046 0 0 1-.115-.165l-1.6-2.683-.67-1.156h-.033zM48.649 22.437a.864.864 0 0 0-.244-.635c-.163-.164-.402-.246-.716-.246h-1.327v1.762h1.319c.192 0 .349-.028.472-.085a.863.863 0 0 0 .295-.214.734.734 0 0 0 .156-.287c.03-.105.045-.203.045-.295zm-2.287-1.697h1.295c.074 0 .156-.01.244-.029a.67.67 0 0 0 .243-.104.585.585 0 0 0 .185-.21.739.739 0 0 0 .072-.352.59.59 0 0 0-.188-.46c-.126-.114-.295-.17-.508-.17h-1.343v1.325zm2.422.363a1.31 1.31 0 0 1 .664.574c.07.124.12.256.156.396.034.14.052.283.052.429a1.621 1.621 0 0 1-.548 1.236c-.168.15-.365.266-.592.347-.226.081-.47.122-.731.122h-1.951c-.17 0-.288-.037-.352-.11-.064-.072-.096-.19-.096-.35v-4.745c0-.156.032-.272.096-.347.064-.075.181-.113.352-.113l1.855-.008c.245 0 .474.027.688.08.213.054.395.138.547.251a1.2 1.2 0 0 1 .36.436c.088.178.132.391.132.639 0 .242-.06.462-.18.658-.12.197-.27.347-.452.449v.056zm5.846 3.055c-.021.032-.066.049-.136.049h-2.279c-.282 0-.514-.04-.695-.122a1.154 1.154 0 0 1-.436-.323 1.166 1.166 0 0 1-.228-.46 2.244 2.244 0 0 1-.064-.542v-2.764c0-.188.026-.37.077-.545.05-.175.132-.33.247-.465.115-.134.263-.242.444-.323a1.6 1.6 0 0 1 .655-.121h2.231c.07 0 .113.015.132.044.019.03.028.077.028.142v.509c0 .07-.01.117-.028.141-.019.024-.062.037-.132.037H52.32c-.203 0-.346.045-.428.137-.083.092-.124.224-.124.396v.848h2.414c.07 0 .114.014.132.04.019.028.028.079.028.155v.444a.269.269 0 0 1-.028.141c-.018.03-.062.045-.132.045h-2.414v1.174c0 .172.044.302.132.39.088.088.228.133.42.133h2.174c.075 0 .121.013.14.04.019.028.028.08.028.155v.506c0 .06-.01.106-.032.139m4.906-4.784c-.02.022-.058.032-.116.032H57.9v4.63c0 .076-.012.124-.036.142-.024.02-.073.029-.147.029h-.624c-.064 0-.111-.011-.14-.033-.03-.021-.044-.067-.044-.137v-4.63h-1.487c-.059 0-.096-.011-.112-.033-.016-.021-.024-.06-.024-.113v-.558c0-.059.008-.099.024-.12.016-.022.053-.033.112-.033h3.998c.058 0 .097.01.116.032.018.022.028.062.028.121v.558c0 .054-.01.092-.028.113m-10.52 9.522a.44.44 0 0 1 .24.117c.053.056.08.147.08.27v2.175a.458.458 0 0 1-.024.161c-.016.043-.053.078-.112.105-.15.081-.304.146-.464.194a3.62 3.62 0 0 1-.463.11c-.15.023-.291.04-.424.048a5.697 5.697 0 0 1-.336.012c-.352 0-.668-.056-.948-.166-.28-.11-.52-.283-.72-.517a2.435 2.435 0 0 1-.46-.889 4.58 4.58 0 0 1-.159-1.28c0-.47.057-.887.172-1.253.115-.367.277-.678.488-.934.21-.255.462-.45.755-.586.294-.134.619-.202.976-.202.23 0 .469.023.72.07.25.045.514.14.791.286.037.032.045.07.024.113l-.104.218c-.027.038-.059.046-.096.024a2.5 2.5 0 0 0-.691-.246 3.533 3.533 0 0 0-.636-.06 1.83 1.83 0 0 0-.896.206 1.79 1.79 0 0 0-.62.557 2.462 2.462 0 0 0-.359.82 4.133 4.133 0 0 0-.116.994c0 .377.036.718.108 1.023.072.304.185.564.34.78.154.215.353.382.595.5.243.119.535.178.876.178.085 0 .183-.004.292-.012a2.74 2.74 0 0 0 .348-.049c.122-.024.246-.055.372-.093.124-.037.249-.088.371-.153v-2.15c-.262 0-1.498.009-1.804.011a.068.068 0 0 1-.067-.068l.003-.235c0-.036.028-.066.065-.067.324-.007 1.77-.036 1.883-.012m25.145 0a.44.44 0 0 1 .24.117c.054.056.08.147.08.27v2.175a.463.463 0 0 1-.024.161c-.016.043-.053.078-.112.105a2.49 2.49 0 0 1-.463.194 3.643 3.643 0 0 1-.888.158 5.703 5.703 0 0 1-.336.012c-.351 0-.667-.056-.947-.166-.28-.11-.52-.283-.72-.517-.2-.234-.353-.53-.46-.889a4.54 4.54 0 0 1-.16-1.28c0-.47.058-.887.173-1.253.114-.367.277-.678.487-.934.21-.255.462-.45.756-.586.293-.134.618-.202.975-.202.23 0 .47.023.72.07.25.045.514.14.791.286.038.032.046.07.024.113l-.104.218c-.026.038-.058.046-.096.024a2.495 2.495 0 0 0-.691-.246 3.53 3.53 0 0 0-.635-.06c-.347 0-.646.068-.896.206-.25.137-.457.323-.62.557a2.458 2.458 0 0 0-.36.82 4.133 4.133 0 0 0-.116.994c0 .377.036.718.108 1.023.072.304.185.564.34.78.155.215.353.382.596.5.242.119.534.178.875.178.086 0 .183-.004.292-.012a2.74 2.74 0 0 0 .348-.049c.123-.024.246-.055.372-.093a2.06 2.06 0 0 0 .372-.153v-2.15c-.263 0-1.499.009-1.804.011a.068.068 0 0 1-.068-.068l.003-.235c0-.036.029-.066.065-.067.324-.007 1.77-.036 1.883-.012m-21.147-.841l-.432-1.309h-.032l-.44 1.285-.735 2.174h2.358l-.719-2.15zM54.421 32a.14.14 0 0 1-.064-.012c-.016-.008-.03-.028-.04-.06l-.472-1.358h-2.59l-.472 1.357c-.016.049-.05.073-.104.073h-.296c-.058 0-.077-.027-.055-.081l1.926-5.39a.365.365 0 0 1 .084-.157c.03-.025.081-.037.156-.037h.144c.085 0 .142.012.172.037.029.024.057.076.084.157l1.87 5.39c.012.011.014.027.009.049-.006.021-.027.032-.064.032h-.288zm3.906-.648c-.075 0-.132-.013-.169-.04a.363.363 0 0 1-.104-.162 248.9 248.9 0 0 0-1.474-3.426l-.288-.679h-.04v4.881c0 .049-.026.073-.079.073h-.235c-.046 0-.07-.024-.07-.073v-5.333c0-.076.013-.138.04-.186.025-.049.09-.073.194-.073h.118c.08 0 .138.015.172.045.035.03.074.092.116.19.022.053.065.153.129.298.064.146.138.318.22.518.084.2.174.413.274.642a116.938 116.938 0 0 1 .75 1.774 31.3 31.3 0 0 1 .498 1.172h.031l.48-1.131 1.383-3.274a.52.52 0 0 1 .12-.19.274.274 0 0 1 .168-.044h.12c.107 0 .175.024.204.073.03.048.044.11.044.186v5.333c0 .049-.027.073-.08.073h-.24c-.053 0-.08-.024-.08-.073v-4.913h-.032l-.336.784-1.434 3.353a.393.393 0 0 1-.104.158c-.038.03-.094.044-.168.044h-.128zm4.689.647h-.248c-.053 0-.08-.024-.08-.073v-5.51c0-.055.027-.082.08-.082h.248c.053 0 .08.027.08.081v5.511c0 .049-.027.073-.08.073m2.246-5.099v5.026c0 .049-.027.073-.08.073h-.24c-.053 0-.08-.024-.08-.073v-5.333a.35.35 0 0 1 .048-.194c.032-.049.1-.073.2-.073h.113c.074 0 .129.018.163.053a.975.975 0 0 1 .132.19l2.295 3.733.688 1.147h.032v-5.042c0-.054.026-.081.08-.081h.24c.053 0 .079.027.079.081v5.333a.355.355 0 0 1-.044.186c-.03.049-.095.073-.196.073h-.12c-.074 0-.129-.018-.164-.052a1.015 1.015 0 0 1-.131-.19l-2.43-3.936-.553-.921h-.032z" fill="#FFF"/></g></svg>