<?xml version="1.0" encoding="UTF-8"?>
<svg width="816px" height="711px" viewBox="0 0 816 711" version="1.1" xmlns="http://www.w3.org/2000/svg" xmlns:xlink="http://www.w3.org/1999/xlink">
    <!-- Generator: Sketch 50.2 (55047) - http://www.bohemiancoding.com/sketch -->
    <title>Background Copy</title>
    <desc>Created with Sketch.</desc>
    <defs>
        <rect id="path-1" x="0" y="0" width="816" height="711"></rect>
    </defs>
    <g id="Home" stroke="none" stroke-width="1" fill="none" fill-rule="evenodd">
        <g id="Background-Copy">
            <g id="Group-13">
                <g id="Oval-3-+-Oval-3-Mask">
                    <mask id="mask-2" fill="white">
                        <use xlink:href="#path-1"></use>
                    </mask>
                    <use id="Mask" fill="#272951" xlink:href="#path-1"></use>
                    <g id="Pattern" mask="url(#mask-2)">
                        <g transform="translate(-3191.000000, -1339.000000)" id="pattern">
                            <g transform="translate(0.000000, 1302.870908)">
                                <g id="Group" fill="#3F3D8F">
                                    <g id="Pattern-poker-Copy" transform="translate(1674.785150, 92.550452)">
                                        <g id="Group-46">
                                            <g id="Group-27" transform="translate(1301.024604, 332.496067)">
                                                <path d="M73.616718,224.745664 L0,120.400172 C43.7046076,121.856984 75.4987032,125.548719 110.912757,98.1452158 L99.6666672,87.7812791 C82.96773,92.6573168 66.0167705,88.8884568 53.5072962,71.1581897 C40.9929123,53.4193531 43.4313106,22.9565433 62.5260969,8.18103504 C81.6274292,-6.60132878 110.148507,-0.0936609077 122.662891,17.6468896 C135.172365,35.3754428 133.63241,53.4519171 124.269943,68.7450223 L130.428126,83.0440671 L154.746648,60.1172636 C150.076052,42.6372255 155.844746,23.1862055 170.612603,11.7596525 C189.707389,-3.01756962 216.619778,1.21747049 230.737941,21.2289348 C244.847921,41.226688 240.813926,69.4220118 221.71914,84.1992339 C206.949647,95.6257869 187.498102,95.6789177 172.929899,85.8908505 L144.84086,103.473722 L158.067125,116.648451 C174.761153,111.746704 191.715385,115.520706 204.229769,133.259543 C216.74088,150.993238 214.299209,181.449192 195.19624,196.229842 C176.10309,211.00535 147.585285,204.506252 135.075811,186.772557 C122.559791,169.03372 124.096473,150.952104 133.465486,135.686421 L125.325491,118.574871 C90.2452852,145.719576 85.6336031,181.930797 73.616718,224.745664" id="Fill-25"></path>
                                            </g>
                                            <g id="Group-45" transform="translate(1531.772364, 5.141692)">
                                                <path d="M168.8473,52.0174672 C165.751025,62.8664369 131.557808,61.7438342 92.4763379,49.5117495 C53.3932315,37.2796648 24.2191867,18.5690484 27.3154616,7.7200788 C30.4101,-3.12717693 64.6033177,-2.00628813 103.686424,10.2275105 C142.767894,22.4595952 171.943575,41.1702115 168.8473,52.0174672" id="Fill-37"></path>
                                                <path d="M90.1335117,57.7189179 C51.0504053,45.4868331 21.877997,26.7762168 24.9726354,15.9272472 L20.5622438,31.3831726 C17.4676054,42.2304284 46.6400137,60.9410447 85.7231201,73.1731294 C124.806227,85.4052141 158.999444,86.5278168 162.095719,75.6788472 L166.504474,60.2246356 C163.409836,71.0736053 129.216618,69.9510026 90.1335117,57.7189179" id="Fill-39"></path>
                                                <path d="M148.624305,122.734925 C145.529666,133.583894 111.336449,132.461292 72.2533424,120.229207 C33.170236,107.997122 3.99782768,89.2865058 7.09246608,78.4375362 C10.1871045,67.5902805 44.3803222,68.7111693 83.4634286,80.9449679 C122.546535,93.1770526 151.72058,111.885955 148.624305,122.734925" id="Fill-41"></path>
                                                <path d="M69.9111708,128.43569 C30.8280644,116.203605 1.65565609,97.4929887 4.75029449,86.6457329 L0.339902906,102.099944 C-2.75473549,112.9472 26.4176728,131.65953 65.5007792,143.891615 C104.583886,156.1237 138.777103,157.246303 141.871742,146.397333 L146.282133,130.943121 C143.187495,141.790377 108.994277,140.669488 69.9111708,128.43569" id="Fill-43"></path>
                                            </g>
                                        </g>
                                    </g>
                                </g>
                                <g id="Group" transform="translate(3446.487818, 0.000000)" fill="#3F3D8F">
                                    <g id="Pattern-poker-Copy">
                                        <g id="Group-46">
                                            <g id="Group-7" transform="translate(188.835037, 77.125376)">
                                                <g id="Group-6" transform="translate(0.000000, 0.000000)">
                                                    <path d="M314.970365,244.47099 C273.787618,231.508785 234.393575,215.141066 203.337544,184.28406 C200.997337,181.958302 202.540565,177.826095 205.76776,177.807242 L252.702836,177.517594 C374.130163,176.763479 354.814448,16.123317 261.947475,10.4708839 C189.821617,6.07302353 119.746305,3.3496408 47.7480939,0.526852016 C42.8942084,0.336609421 38.6409217,3.93236586 37.7932101,8.94037364 C25.0366229,84.2027438 12.055834,155.245499 0.942301845,232.02981 C-13.0056638,328.371402 133.080579,381.380531 158.90469,257.140119 L168.849755,209.16642 C169.546908,205.807182 173.828015,205.131906 175.459615,208.114088 C195.680319,245.062285 203.275357,290.429145 208.067055,335.425803 C208.757662,341.916332 216.00576,345.052764 220.849827,340.941125 L317.655876,258.766607 C322.563766,254.598409 321.022175,246.37513 314.970365,244.47099" id="Fill-4"></path>
                                                </g>
                                            </g>
                                            <g id="Group-19" transform="translate(0.000000, 540.872610)">
                                                <path d="M296.612897,196.418395 L66.4460974,262.295464 C59.9835236,264.144759 53.100367,259.616643 50.8648958,252.044644 L0.663347682,81.9437697 C-0.912610423,76.6032659 3.23921275,71.7837868 7.8279838,73.6245124 L48.3643101,89.8774001 C53.3065671,91.8586653 58.5941275,91.6701366 63.1943541,89.3478058 L94.0720047,73.7599103 C98.6722313,71.4375795 102.254549,67.1476947 104.121806,61.7283516 L120.598178,13.9174738 C121.972846,9.93094874 126.260499,8.69180102 129.387868,11.377478 L167.237046,43.8609727 C171.48706,47.5064322 176.655155,49.2666046 181.734879,48.7918551 L215.851181,45.6160035 C220.930904,45.1429678 225.562225,42.4727159 228.840152,38.1262725 L255.461243,2.81484733 C258.513332,-1.23337798 264.442404,0.699898121 265.681241,6.1449497 L305.050737,179.294848 C306.805074,187.003958 303.07547,194.5691 296.612897,196.418395" id="Fill-17"></path>
                                            </g>
                                            <g id="Group-45" transform="translate(511.227297, 515.883074)">
                                                <path d="M168.8473,52.0174672 C165.751025,62.8664369 131.557808,61.7438342 92.4763379,49.5117495 C53.3932315,37.2796648 24.2191867,18.5690484 27.3154616,7.7200788 C30.4101,-3.12717693 64.6033177,-2.00628813 103.686424,10.2275105 C142.767894,22.4595952 171.943575,41.1702115 168.8473,52.0174672" id="Fill-37"></path>
                                                <path d="M90.1335117,57.7189179 C51.0504053,45.4868331 21.877997,26.7762168 24.9726354,15.9272472 L20.5622438,31.3831726 C17.4676054,42.2304284 46.6400137,60.9410447 85.7231201,73.1731294 C124.806227,85.4052141 158.999444,86.5278168 162.095719,75.6788472 L166.504474,60.2246356 C163.409836,71.0736053 129.216618,69.9510026 90.1335117,57.7189179" id="Fill-39"></path>
                                                <path d="M148.624305,122.734925 C145.529666,133.583894 111.336449,132.461292 72.2533424,120.229207 C33.170236,107.997122 3.99782768,89.2865058 7.09246608,78.4375362 C10.1871045,67.5902805 44.3803222,68.7111693 83.4634286,80.9449679 C122.546535,93.1770526 151.72058,111.885955 148.624305,122.734925" id="Fill-41"></path>
                                                <path d="M69.9111708,128.43569 C30.8280644,116.203605 1.65565609,97.4929887 4.75029449,86.6457329 L0.339902906,102.099944 C-2.75473549,112.9472 26.4176728,131.65953 65.5007792,143.891615 C104.583886,156.1237 138.777103,157.246303 141.871742,146.397333 L146.282133,130.943121 C143.187495,141.790377 108.994277,140.669488 69.9111708,128.43569" id="Fill-43"></path>
                                            </g>
                                        </g>
                                    </g>
                                </g>
                            </g>
                        </g>
                    </g>
                </g>
            </g>
        </g>
    </g>
</svg>